<svg width="383" height="536" viewBox="0 0 383 536" fill="none" xmlns="http://www.w3.org/2000/svg">
<rect x="1" y="1" width="381" height="534" rx="14" fill="white"/>
<rect x="1" y="1" width="381" height="534" rx="14" stroke="black" stroke-width="2"/>
<path d="M339.907 34.4827L43.8932 34.4853C43.4799 34.5013 32.4799 35.0813 32.4799 50.3V485.304C32.4799 500.52 43.4799 501.101 43.9466 501.117H339.92C340.627 501.085 351.373 500.343 351.373 485.304V50.3C351.373 34.968 340.373 34.4973 339.907 34.4827ZM339.973 504.604H43.8932C43.7066 504.6 29 503.989 29 485.304V50.3C29 31.6146 43.7067 31.004 43.8534 31H339.96C340.147 31.004 354.853 31.6146 354.853 50.3V485.304C354.853 503.989 340.147 504.6 340 504.601L339.973 504.604Z" fill="#952B2B"/>
<path d="M333.84 40.5427H49.9865C49.5065 40.5573 37.8131 41.088 37.8131 57.1147V478.489C37.8131 494.545 49.8798 495.056 49.9998 495.06H333.853C334.426 495.041 346.04 494.457 346.04 478.489V57.1147C346.04 41.0587 333.973 40.5453 333.84 40.5427ZM333.866 495.932H49.9865C49.8532 495.926 36.9331 495.383 36.9331 478.489V57.1147C36.9331 40.2187 49.8532 39.6733 49.9865 39.6719H333.853C334 39.6733 346.906 40.2187 346.906 57.1147V478.489C346.906 495.383 334 495.926 333.866 495.932Z" fill="#952B2B"/>
<path fill-rule="evenodd" clip-rule="evenodd" d="M45.1308 60.8902C45.1061 61.39 45.0933 61.906 45.0933 62.4386V92.4786L61.2607 76.8056L77.5214 92.569L61.2607 108.332L45.0933 92.6594V124.284L61.2607 108.611L77.5214 124.375L61.2607 140.138L45.0933 124.465V156.09L61.2607 140.417L77.5214 156.18L61.2607 171.944L45.0933 156.271V187.895L61.2607 172.222L77.5214 187.986L61.2607 203.749L45.0933 188.076V219.701L61.2607 204.028L77.5214 219.792L61.2607 235.555L45.0933 219.882V251.507L61.2607 235.834L77.5214 251.597L61.2607 267.361L45.0933 251.688V283.312L61.2607 267.639L77.5214 283.403L61.2607 299.166L45.0933 283.493V315.118L61.2607 299.445L77.5214 315.208L61.2607 330.972L45.0933 315.299V346.924L61.2607 331.251L77.5214 347.014L61.2607 362.777L45.0933 347.104V378.729L61.2607 363.056L77.5214 378.82L61.2607 394.583L45.0933 378.91V410.535L61.2607 394.862L77.5214 410.625L61.2607 426.389L45.0933 410.716V442.34L61.2607 426.668L77.5214 442.431L61.2607 458.194L45.0933 442.521V473.165C45.0933 473.494 45.0981 473.816 45.1077 474.132L61.2607 458.473L77.5214 474.237L61.2607 490L45.115 474.348C45.6863 489.656 57.3366 490.163 57.4667 490.164H326.4C326.517 490.163 338.092 489.659 338.732 474.496L322.739 490L306.479 474.237L322.739 458.473L338.749 473.994C338.756 473.722 338.76 473.446 338.76 473.165V442.664L322.739 458.194L306.479 442.431L322.739 426.668L338.76 442.198V410.858L322.739 426.389L306.479 410.625L322.739 394.862L338.76 410.393V379.052L322.739 394.583L306.479 378.82L322.739 363.056L338.76 378.587V347.247L322.739 362.777L306.479 347.014L322.739 331.251L338.76 346.781V315.441L322.739 330.972L306.479 315.208L322.739 299.445L338.76 314.976V283.635L322.739 299.166L306.479 283.403L322.739 267.639L338.76 283.17V251.83L322.739 267.361L306.479 251.597L322.739 235.834L338.76 251.364V220.024L322.739 235.555L306.479 219.792L322.739 204.028L338.76 219.559V188.219L322.739 203.749L306.479 187.986L322.739 172.222L338.76 187.753V156.413L322.739 171.944L306.479 156.18L322.739 140.417L338.76 155.947V124.607L322.739 140.138L306.479 124.375L322.739 108.611L338.76 124.142V92.8017L322.739 108.332L306.479 92.569L322.739 76.8056L338.76 92.3363V62.4386C338.76 61.9541 338.749 61.4835 338.729 61.0262L322.739 76.5267L306.479 60.7633L322.288 45.4373H290.381L306.191 60.7633L289.93 76.5267L274.023 61.1058L258.115 76.5267L241.854 60.7633L257.664 45.4373H225.757L241.567 60.7633L225.306 76.5267L209.045 60.7633L224.855 45.4373H192.948L208.758 60.7633L192.497 76.5267L176.236 60.7633L192.046 45.4373H160.139L175.949 60.7633L159.688 76.5267L143.427 60.7633L159.237 45.4373H127.33L143.14 60.7633L126.879 76.5267L110.618 60.7633L126.428 45.4373H94.5209L110.331 60.7633L94.0698 76.5267L77.8091 60.7633L93.6187 45.4373H61.7118L77.5214 60.7633L61.2607 76.5267L45.1308 60.8902ZM77.8091 92.569L94.0698 76.8056L110.331 92.569L94.0698 108.332L77.8091 92.569ZM126.879 76.8056L110.618 92.569L126.879 108.332L143.14 92.569L126.879 76.8056ZM143.427 92.569L159.688 76.8056L175.949 92.569L159.688 108.332L143.427 92.569ZM192.497 76.8056L176.236 92.569L192.497 108.332L208.758 92.569L192.497 76.8056ZM209.045 92.569L225.306 76.8056L241.567 92.569L225.306 108.332L209.045 92.569ZM258.115 76.8056L241.854 92.569L258.115 108.332L274.023 92.9114L289.93 108.332L306.191 92.569L289.93 76.8056L274.023 92.2265L258.115 76.8056ZM94.0698 108.611L77.8091 124.375L94.0698 140.138L110.331 124.375L94.0698 108.611ZM110.618 124.375L126.879 108.611L143.14 124.375L126.879 140.138L110.618 124.375ZM159.688 108.611L143.427 124.375L159.688 140.138L175.949 124.375L159.688 108.611ZM176.236 124.375L192.497 108.611L208.758 124.375L192.497 140.138L176.236 124.375ZM225.306 108.611L209.045 124.375L225.306 140.138L241.567 124.375L225.306 108.611ZM241.854 124.375L258.115 108.611L274.023 124.032L289.93 108.611L306.191 124.375L289.93 140.138L274.023 124.717L258.115 140.138L241.854 124.375ZM77.8091 156.18L94.0698 140.417L110.331 156.18L94.0698 171.944L77.8091 156.18ZM126.879 140.417L110.618 156.18L126.879 171.944L143.14 156.18L126.879 140.417ZM143.427 156.18L159.688 140.417L175.949 156.18L159.688 171.944L143.427 156.18ZM192.497 140.417L176.236 156.18L192.497 171.944L208.758 156.18L192.497 140.417ZM209.045 156.18L225.306 140.417L241.567 156.18L225.306 171.944L209.045 156.18ZM258.115 140.417L241.854 156.18L258.115 171.944L274.023 156.523L289.93 171.944L306.191 156.18L289.93 140.417L274.023 155.838L258.115 140.417ZM94.0698 172.222L77.8091 187.986L94.0698 203.749L110.331 187.986L94.0698 172.222ZM110.618 187.986L126.879 172.222L143.14 187.986L126.879 203.749L110.618 187.986ZM159.688 172.222L143.427 187.986L159.688 203.749L175.949 187.986L159.688 172.222ZM176.236 187.986L192.497 172.222L208.758 187.986L192.497 203.749L176.236 187.986ZM225.306 172.222L209.045 187.986L225.306 203.749L241.567 187.986L225.306 172.222ZM241.854 187.986L258.115 172.222L274.023 187.643L289.93 172.222L306.191 187.986L289.93 203.749L274.023 188.328L258.115 203.749L241.854 187.986ZM77.8091 219.792L94.0698 204.028L110.331 219.792L94.0698 235.555L77.8091 219.792ZM126.879 204.028L110.618 219.792L126.879 235.555L143.14 219.792L126.879 204.028ZM143.427 219.792L159.688 204.028L175.949 219.792L159.688 235.555L143.427 219.792ZM192.497 204.028L176.236 219.792L192.497 235.555L208.758 219.792L192.497 204.028ZM209.045 219.792L225.306 204.028L241.567 219.792L225.306 235.555L209.045 219.792ZM258.115 204.028L241.854 219.792L258.115 235.555L274.023 220.134L289.93 235.555L306.191 219.792L289.93 204.028L274.023 219.449L258.115 204.028ZM94.0698 235.834L77.8091 251.597L94.0698 267.361L110.331 251.597L94.0698 235.834ZM110.618 251.597L126.879 235.834L143.14 251.597L126.879 267.361L110.618 251.597ZM159.688 235.834L143.427 251.597L159.688 267.361L175.949 251.597L159.688 235.834ZM176.236 251.597L192.497 235.834L208.758 251.597L192.497 267.361L176.236 251.597ZM225.306 235.834L209.045 251.597L225.306 267.361L241.567 251.597L225.306 235.834ZM241.854 251.597L258.115 235.834L274.023 251.255L289.93 235.834L306.191 251.597L289.93 267.361L274.023 251.94L258.115 267.361L241.854 251.597ZM77.8091 283.403L94.0698 267.639L110.331 283.403L94.0698 299.166L77.8091 283.403ZM126.879 267.639L110.618 283.403L126.879 299.166L143.14 283.403L126.879 267.639ZM143.427 283.403L159.688 267.639L175.949 283.403L159.688 299.166L143.427 283.403ZM192.497 267.639L176.236 283.403L192.497 299.166L208.758 283.403L192.497 267.639ZM209.045 283.403L225.306 267.639L241.567 283.403L225.306 299.166L209.045 283.403ZM258.115 267.639L241.854 283.403L258.115 299.166L274.023 283.745L289.93 299.166L306.191 283.403L289.93 267.639L274.023 283.06L258.115 267.639ZM94.0698 299.445L77.8091 315.208L94.0698 330.972L110.331 315.208L94.0698 299.445ZM110.618 315.208L126.879 299.445L143.14 315.208L126.879 330.972L110.618 315.208ZM159.688 299.445L143.427 315.208L159.688 330.972L175.949 315.208L159.688 299.445ZM176.236 315.208L192.497 299.445L208.758 315.208L192.497 330.972L176.236 315.208ZM225.306 299.445L209.045 315.208L225.306 330.972L241.567 315.208L225.306 299.445ZM241.854 315.208L258.115 299.445L274.023 314.866L289.93 299.445L306.191 315.208L289.93 330.972L274.023 315.551L258.115 330.972L241.854 315.208ZM77.8091 347.014L94.0698 331.251L110.331 347.014L94.0698 362.777L77.8091 347.014ZM126.879 331.251L110.618 347.014L126.879 362.777L143.14 347.014L126.879 331.251ZM143.427 347.014L159.688 331.251L175.949 347.014L159.688 362.777L143.427 347.014ZM192.497 331.251L176.236 347.014L192.497 362.777L208.758 347.014L192.497 331.251ZM209.045 347.014L225.306 331.251L241.567 347.014L225.306 362.777L209.045 347.014ZM258.115 331.251L241.854 347.014L258.115 362.777L274.023 347.356L289.93 362.777L306.191 347.014L289.93 331.251L274.023 346.672L258.115 331.251ZM94.0698 363.056L77.8091 378.82L94.0698 394.583L110.331 378.82L94.0698 363.056ZM110.618 378.82L126.879 363.056L143.14 378.82L126.879 394.583L110.618 378.82ZM159.688 363.056L143.427 378.82L159.688 394.583L175.949 378.82L159.688 363.056ZM176.236 378.82L192.497 363.056L208.758 378.82L192.497 394.583L176.236 378.82ZM225.306 363.056L209.045 378.82L225.306 394.583L241.567 378.82L225.306 363.056ZM241.854 378.82L258.115 363.056L274.023 378.477L289.93 363.056L306.191 378.82L289.93 394.583L274.023 379.162L258.115 394.583L241.854 378.82ZM77.8091 410.625L94.0698 394.862L110.331 410.625L94.0698 426.389L77.8091 410.625ZM126.879 394.862L110.618 410.625L126.879 426.389L143.14 410.625L126.879 394.862ZM143.427 410.625L159.688 394.862L175.949 410.625L159.688 426.389L143.427 410.625ZM192.497 394.862L176.236 410.625L192.497 426.389L208.758 410.625L192.497 394.862ZM209.045 410.625L225.306 394.862L241.567 410.625L225.306 426.389L209.045 410.625ZM258.115 394.862L241.854 410.625L258.115 426.389L274.023 410.968L289.93 426.389L306.191 410.625L289.93 394.862L274.023 410.283L258.115 394.862ZM94.0698 426.668L77.8091 442.431L94.0698 458.194L110.331 442.431L94.0698 426.668ZM110.618 442.431L126.879 426.668L143.14 442.431L126.879 458.194L110.618 442.431ZM159.688 426.668L143.427 442.431L159.688 458.194L175.949 442.431L159.688 426.668ZM176.236 442.431L192.497 426.668L208.758 442.431L192.497 458.194L176.236 442.431ZM225.306 426.668L209.045 442.431L225.306 458.194L241.567 442.431L225.306 426.668ZM241.854 442.431L258.115 426.668L274.023 442.088L289.93 426.668L306.191 442.431L289.93 458.194L274.023 442.773L258.115 458.194L241.854 442.431ZM77.8091 474.237L94.0698 458.473L110.331 474.237L94.0698 490L77.8091 474.237ZM126.879 458.473L110.618 474.237L126.879 490L143.14 474.237L126.879 458.473ZM143.427 474.237L159.688 458.473L175.949 474.237L159.688 490L143.427 474.237ZM192.497 458.473L176.236 474.237L192.497 490L208.758 474.237L192.497 458.473ZM209.045 474.237L225.306 458.473L241.567 474.237L225.306 490L209.045 474.237ZM258.115 458.473L241.854 474.237L258.115 490L274.023 474.579L289.93 490L306.191 474.237L289.93 458.473L274.023 473.894L258.115 458.473Z" fill="#952B2B"/>
<path d="M60.8096 45.4373H57.4534C57.338 45.4385 46.0095 45.9295 45.1454 60.6224L60.8096 45.4373Z" fill="#952B2B"/>
<path d="M258.566 45.4373L274.023 60.4209L289.479 45.4373H258.566Z" fill="#952B2B"/>
<path d="M323.19 45.4373L338.699 60.4711C337.766 45.9262 326.515 45.4385 326.387 45.4373H323.19Z" fill="#952B2B"/>
</svg>
