<svg width="383" height="536" viewBox="0 0 383 536" fill="none" xmlns="http://www.w3.org/2000/svg">
<rect x="1" y="1" width="381" height="534" rx="14" fill="white"/>
<rect x="1" y="1" width="381" height="534" rx="14" stroke="black" stroke-width="2"/>
<path d="M31.6772 106.872C30.8439 116.825 25.2306 123.796 25.2306 123.796H31.6772H38.1226C38.1226 123.796 32.5092 116.825 31.6772 106.872Z" fill="#040606"/>
<path d="M41.0173 95.604C39.736 95.604 38.516 95.8653 37.4053 96.3333L37.3213 96.2466C39.5667 94.5413 41.0173 91.8453 41.0173 88.808C41.0173 83.6493 36.836 79.4693 31.6773 79.4693C26.52 79.4693 22.34 83.6493 22.34 88.808C22.34 92.0573 23.9987 94.9187 26.5187 96.592C25.2613 95.9613 23.8426 95.604 22.34 95.604C17.18 95.604 13 99.7853 13 104.944C13 110.101 17.18 114.281 22.34 114.281C27.36 114.281 31.4547 110.319 31.668 105.351L31.688 105.363C31.908 110.325 35.9986 114.281 41.0173 114.281C46.1733 114.281 50.356 110.101 50.356 104.944C50.356 99.7853 46.1733 95.604 41.0173 95.604Z" fill="#040606"/>
<path d="M30.6466 47.8893C31.5013 47.8893 32.3213 47.816 33.0973 47.6693C33.876 47.524 34.636 47.3106 35.3813 47.0266C36.1253 46.7466 36.852 46.384 37.5627 45.944C38.272 45.504 38.9106 45.0386 39.4733 44.5413C39.6746 44.3613 39.856 44.124 40.016 43.8306C40.172 43.5373 40.2973 43.1546 40.3853 42.6813C40.476 42.208 40.5213 41.464 40.5213 40.4493C40.5213 37.36 40.2107 34.7186 39.5907 32.52C38.972 30.32 38.0253 28.6626 36.7493 27.548C35.476 26.432 33.904 25.8733 32.0333 25.8733C30.3427 25.8733 28.9093 26.1666 27.7373 26.7506C26.5653 27.34 25.612 28.1453 24.88 29.172C24.148 30.1973 23.612 31.4026 23.2746 32.7893C22.9373 34.176 22.7667 35.6813 22.7667 37.3027C22.7667 40.6653 23.4533 43.268 24.8293 45.116C26.2053 46.9666 28.1453 47.8893 30.6466 47.8893ZM23.612 68.384V66.728C26.768 66.728 29.5026 66.028 31.8133 64.6306C34.124 63.232 35.9853 61.1626 37.3947 58.4253C38.8013 55.6866 39.7426 52.0946 40.2173 47.6533L39.88 47.5173C37.9866 48.8693 36.1213 49.864 34.2826 50.492C32.444 51.1266 30.456 51.4413 28.3133 51.4413C25.764 51.4413 23.5946 50.8826 21.804 49.7666C20.0106 48.6493 18.6627 47.0826 17.7613 45.0666C16.86 43.048 16.4093 40.6853 16.4093 37.98C16.4093 35.9506 16.7466 34.0306 17.424 32.2146C18.1 30.4013 19.1027 28.8106 20.4333 27.4466C21.7627 26.0813 23.4266 25 25.4213 24.1986C27.416 23.4 29.7453 23 32.4053 23C37.14 23 40.7467 24.6347 43.2267 27.9027C45.708 31.1733 46.9466 35.8733 46.9466 42.004C46.9466 47.62 46.0346 52.4826 44.208 56.5973C42.3813 60.7133 39.8227 63.9146 36.532 66.2026C33.2387 68.4906 29.396 69.84 24.9987 70.244L23.612 68.384Z" fill="#040606"/>
<path d="M352.253 428.137C353.084 418.185 358.697 411.215 358.697 411.215H352.253H345.808C345.808 411.215 351.419 418.185 352.253 428.137Z" fill="#040606"/>
<path d="M342.915 439.407C344.195 439.407 345.415 439.144 346.525 438.677L346.609 438.763C344.364 440.468 342.915 443.165 342.915 446.201C342.915 451.36 347.095 455.541 352.253 455.541C357.411 455.541 361.592 451.36 361.592 446.201C361.592 442.953 359.931 440.091 357.412 438.419C358.671 439.05 360.089 439.407 361.592 439.407C366.751 439.407 370.931 435.225 370.931 430.067C370.931 424.91 366.751 420.729 361.592 420.729C356.571 420.729 352.476 424.691 352.263 429.66L352.243 429.646C352.023 424.685 347.931 420.729 342.915 420.729C337.757 420.729 333.575 424.91 333.575 430.067C333.575 435.225 337.757 439.407 342.915 439.407Z" fill="#040606"/>
<path d="M353.281 487.121C352.427 487.121 351.609 487.193 350.831 487.341C350.052 487.486 349.292 487.7 348.548 487.983C347.805 488.265 347.076 488.627 346.367 489.067C345.656 489.507 345.019 489.971 344.455 490.468C344.253 490.648 344.075 490.886 343.915 491.18C343.756 491.472 343.633 491.856 343.543 492.331C343.452 492.801 343.407 493.547 343.407 494.561C343.407 497.649 343.717 500.292 344.337 502.491C344.957 504.691 345.905 506.348 347.179 507.463C348.452 508.579 350.025 509.136 351.895 509.136C353.587 509.136 355.019 508.844 356.192 508.259C357.363 507.67 358.316 506.864 359.049 505.839C359.78 504.813 360.319 503.608 360.655 502.221C360.993 500.834 361.161 499.329 361.161 497.707C361.161 494.345 360.475 491.743 359.1 489.895C357.724 488.045 355.785 487.121 353.281 487.121ZM360.319 466.627V468.283C357.16 468.283 354.428 468.981 352.115 470.38C349.805 471.779 347.944 473.848 346.535 476.585C345.127 479.325 344.185 482.915 343.711 487.357L344.048 487.493C345.944 486.14 347.809 485.146 349.647 484.519C351.484 483.884 353.475 483.569 355.617 483.569C358.164 483.569 360.333 484.128 362.127 485.245C363.92 486.36 365.267 487.927 366.167 489.944C367.071 491.963 367.521 494.325 367.521 497.029C367.521 499.06 367.181 500.979 366.505 502.796C365.828 504.609 364.825 506.2 363.495 507.564C362.165 508.928 360.504 510.01 358.507 510.812C356.512 511.61 354.183 512.01 351.523 512.01C346.788 512.01 343.183 510.376 340.701 507.108C338.223 503.837 336.981 499.136 336.981 493.007C336.981 487.392 337.896 482.527 339.72 478.413C341.548 474.298 344.105 471.095 347.397 468.807C350.689 466.52 354.535 465.172 358.932 464.767L360.319 466.627Z" fill="#040606"/>
<path d="M191.119 273.459C189.467 293.212 178.327 307.047 178.327 307.047H191.119H203.911C203.911 307.047 192.773 293.212 191.119 273.459Z" fill="#040606"/>
<path d="M209.656 251.091C207.111 251.091 204.689 251.609 202.485 252.539L202.323 252.365C206.775 248.981 209.656 243.633 209.656 237.604C209.656 227.367 201.355 219.072 191.119 219.072C180.883 219.072 172.584 227.367 172.584 237.604C172.584 244.052 175.88 249.733 180.879 253.052C178.381 251.8 175.567 251.091 172.584 251.091C162.347 251.091 154.048 259.392 154.048 269.629C154.048 279.865 162.347 288.163 172.584 288.163C182.551 288.163 190.676 280.295 191.099 270.433L191.139 270.463C191.575 280.311 199.696 288.163 209.656 288.163C219.889 288.163 228.187 279.865 228.187 269.629C228.187 259.392 219.889 251.091 209.656 251.091Z" fill="#040606"/>
<path d="M261.78 117.975C260.128 137.729 248.989 151.564 248.989 151.564H261.78H274.572C274.572 151.564 263.436 137.729 261.78 117.975Z" fill="#040606"/>
<path d="M280.317 95.6093C277.775 95.6093 275.353 96.1267 273.149 97.0573L272.984 96.884C277.439 93.5 280.317 88.1493 280.317 82.1213C280.317 71.884 272.019 63.588 261.78 63.588C251.544 63.588 243.248 71.884 243.248 82.1213C243.248 88.5707 246.543 94.2507 251.543 97.5707C249.045 96.3174 246.228 95.6093 243.248 95.6093C233.011 95.6093 224.712 103.909 224.712 114.147C224.712 124.383 233.011 132.68 243.248 132.68C253.213 132.68 261.337 124.811 261.76 114.952L261.8 114.979C262.239 124.829 270.36 132.68 280.317 132.68C290.552 132.68 298.851 124.383 298.851 114.147C298.851 103.909 290.552 95.6093 280.317 95.6093Z" fill="#040606"/>
<path d="M261.78 418.443C263.433 398.688 274.572 384.853 274.572 384.853H261.78H248.989C248.989 384.853 260.125 398.688 261.78 418.443Z" fill="#040606"/>
<path d="M243.244 440.808C245.788 440.808 248.211 440.292 250.413 439.36L250.577 439.533C246.124 442.917 243.244 448.268 243.244 454.296C243.244 464.533 251.544 472.829 261.78 472.829C272.017 472.829 280.315 464.533 280.315 454.296C280.315 447.848 277.019 442.167 272.021 438.848C274.517 440.1 277.332 440.808 280.315 440.808C290.552 440.808 298.851 432.508 298.851 422.271C298.851 412.034 290.552 403.739 280.315 403.739C270.348 403.739 262.223 411.605 261.8 421.467L261.76 421.437C261.324 411.588 253.204 403.739 243.244 403.739C233.011 403.739 224.712 412.034 224.712 422.271C224.712 432.508 233.011 440.808 243.244 440.808Z" fill="#040606"/>
<path d="M261.78 225.064C260.128 244.817 248.989 258.653 248.989 258.653H261.78H274.572C274.572 258.653 263.436 244.817 261.78 225.064Z" fill="#040606"/>
<path d="M280.317 202.697C277.775 202.697 275.353 203.215 273.149 204.145L272.984 203.972C277.439 200.588 280.317 195.239 280.317 189.209C280.317 178.972 272.019 170.677 261.78 170.677C251.544 170.677 243.248 178.972 243.248 189.209C243.248 195.659 246.543 201.34 251.543 204.659C249.045 203.407 246.228 202.697 243.248 202.697C233.011 202.697 224.712 210.997 224.712 221.236C224.712 231.471 233.011 239.768 243.248 239.768C253.213 239.768 261.337 231.901 261.76 222.04L261.8 222.068C262.239 231.917 270.36 239.768 280.317 239.768C290.552 239.768 298.851 231.471 298.851 221.236C298.851 210.997 290.552 202.697 280.317 202.697Z" fill="#040606"/>
<path d="M261.78 311.355C260.128 291.599 248.989 277.764 248.989 277.764H261.78H274.572C274.572 277.764 263.436 291.599 261.78 311.355Z" fill="#040606"/>
<path d="M298.851 315.183C298.851 304.947 290.552 296.649 280.317 296.649C270.36 296.649 262.239 304.5 261.8 314.349L261.76 314.377C261.337 304.517 253.213 296.649 243.248 296.649C233.011 296.649 224.712 304.947 224.712 315.183C224.712 325.419 233.011 333.72 243.248 333.72C246.228 333.72 249.045 333.012 251.543 331.759C246.543 335.079 243.248 340.759 243.248 347.207C243.248 357.445 251.544 365.741 261.78 365.741C272.019 365.741 280.317 357.445 280.317 347.207C280.317 341.18 277.439 335.829 272.984 332.445L273.149 332.272C275.353 333.203 277.775 333.72 280.317 333.72C290.552 333.72 298.851 325.419 298.851 315.183Z" fill="#040606"/>
<path d="M120.455 117.975C118.803 137.729 107.663 151.564 107.663 151.564H120.455H133.247C133.247 151.564 122.109 137.729 120.455 117.975Z" fill="#040606"/>
<path d="M138.992 95.6093C136.449 95.6093 134.028 96.1267 131.824 97.0573L131.659 96.884C136.113 93.5 138.992 88.1493 138.992 82.1213C138.992 71.884 130.693 63.588 120.455 63.588C110.219 63.588 101.923 71.884 101.923 82.1213C101.923 88.5707 105.216 94.2507 110.216 97.5707C107.72 96.3174 104.903 95.6093 101.923 95.6093C91.6853 95.6093 83.3866 103.909 83.3866 114.147C83.3866 124.383 91.6853 132.68 101.923 132.68C111.887 132.68 120.012 124.811 120.435 114.952L120.476 114.979C120.913 124.829 129.035 132.68 138.992 132.68C149.228 132.68 157.525 124.383 157.525 114.147C157.525 103.909 149.228 95.6093 138.992 95.6093Z" fill="#040606"/>
<path d="M120.455 225.064C118.803 244.817 107.663 258.653 107.663 258.653H120.455H133.247C133.247 258.653 122.109 244.817 120.455 225.064Z" fill="#040606"/>
<path d="M138.992 202.697C136.449 202.697 134.028 203.215 131.824 204.145L131.659 203.972C136.113 200.588 138.992 195.239 138.992 189.209C138.992 178.972 130.693 170.677 120.455 170.677C110.219 170.677 101.923 178.972 101.923 189.209C101.923 195.659 105.216 201.34 110.216 204.659C107.72 203.407 104.903 202.697 101.923 202.697C91.6853 202.697 83.3866 210.997 83.3866 221.236C83.3866 231.471 91.6853 239.768 101.923 239.768C111.887 239.768 120.012 231.901 120.435 222.04L120.476 222.068C120.913 231.917 129.035 239.768 138.992 239.768C149.228 239.768 157.525 231.471 157.525 221.236C157.525 210.997 149.228 202.697 138.992 202.697Z" fill="#040606"/>
<path d="M120.455 311.355C118.803 291.599 107.663 277.764 107.663 277.764H120.455H133.247C133.247 277.764 122.109 291.599 120.455 311.355Z" fill="#040606"/>
<path d="M157.525 315.183C157.525 304.947 149.228 296.649 138.992 296.649C129.035 296.649 120.913 304.5 120.476 314.349L120.435 314.377C120.012 304.517 111.887 296.649 101.923 296.649C91.6853 296.649 83.3866 304.947 83.3866 315.183C83.3866 325.419 91.6853 333.72 101.923 333.72C104.903 333.72 107.72 333.012 110.216 331.759C105.216 335.079 101.923 340.759 101.923 347.207C101.923 357.445 110.219 365.741 120.455 365.741C130.693 365.741 138.992 357.445 138.992 347.207C138.992 341.18 136.113 335.829 131.659 332.445L131.824 332.272C134.028 333.203 136.449 333.72 138.992 333.72C149.228 333.72 157.525 325.419 157.525 315.183Z" fill="#040606"/>
<path d="M120.455 418.443C122.107 398.688 133.247 384.853 133.247 384.853H120.455H107.663C107.663 384.853 118.8 398.688 120.455 418.443Z" fill="#040606"/>
<path d="M101.919 440.808C104.463 440.808 106.884 440.292 109.088 439.36L109.252 439.533C104.799 442.917 101.919 448.268 101.919 454.296C101.919 464.533 110.219 472.829 120.455 472.829C130.691 472.829 138.989 464.533 138.989 454.296C138.989 447.848 135.693 442.167 130.696 438.848C133.192 440.1 136.007 440.808 138.989 440.808C149.228 440.808 157.525 432.508 157.525 422.271C157.525 412.034 149.228 403.739 138.989 403.739C129.023 403.739 120.897 411.605 120.476 421.467L120.435 421.437C119.999 411.588 111.879 403.739 101.919 403.739C91.6853 403.739 83.3866 412.034 83.3866 422.271C83.3866 432.508 91.6853 440.808 101.919 440.808Z" fill="#040606"/>
</svg>
