<svg width="383" height="536" viewBox="0 0 383 536" fill="none" xmlns="http://www.w3.org/2000/svg">
<rect x="1" y="1" width="381" height="534" rx="14" fill="white"/>
<rect x="1" y="1" width="381" height="534" rx="14" stroke="black" stroke-width="2"/>
<path d="M38.2734 106.872C37.4427 116.825 31.8293 123.796 31.8293 123.796H38.2734H44.7187C44.7187 123.796 39.108 116.825 38.2734 106.872Z" fill="#040606"/>
<path d="M47.612 95.604C46.332 95.604 45.1106 95.8653 44.0013 96.3333L43.9173 96.2466C46.1626 94.5413 47.612 91.8453 47.612 88.808C47.612 83.6493 43.432 79.4693 38.2733 79.4693C33.116 79.4693 28.9346 83.6493 28.9346 88.808C28.9346 92.0573 30.5959 94.9187 33.1133 96.592C31.8559 95.9613 30.4373 95.604 28.9346 95.604C23.776 95.604 19.5959 99.7853 19.5959 104.944C19.5959 110.101 23.776 114.281 28.9346 114.281C33.956 114.281 38.0506 110.319 38.264 105.351L38.284 105.363C38.504 110.325 42.596 114.281 47.612 114.281C52.7693 114.281 56.9519 110.101 56.9519 104.944C56.9519 99.7853 52.7693 95.604 47.612 95.604Z" fill="#040606"/>
<path d="M28.484 60.876C28.484 62.184 28.5586 63.1707 28.704 63.8334C28.852 64.5014 29.1093 65.0414 29.4826 65.4587C29.8546 65.876 30.3893 66.2027 31.0893 66.4387C31.788 66.676 32.6666 66.8573 33.7266 66.9787C34.7866 67.104 36.1853 67.1894 37.92 67.2347V69.7027H12.9266V67.2347C15.4306 67.12 17.2173 66.9693 18.288 66.7773C19.36 66.5867 20.176 66.2987 20.74 65.9147C21.304 65.5307 21.716 64.9907 21.9733 64.292C22.2346 63.5934 22.364 62.4547 22.364 60.876V33.4493C22.364 32.548 22.2053 31.888 21.8893 31.4694C21.572 31.0534 21.112 30.844 20.5027 30.844C19.7813 30.844 18.756 31.216 17.4253 31.9614C16.096 32.7054 14.4507 33.732 12.4893 35.0387L11 32.4347L26.8293 23H28.688C28.552 25.1627 28.484 28.1614 28.484 31.9947V60.876Z" fill="#040606"/>
<path d="M42.5199 46.0293C42.5199 53.38 43.2 58.7746 44.5666 62.2133C45.928 65.652 48.044 67.3693 50.9053 67.3693C53.6346 67.3693 55.6586 65.7506 56.9772 62.516C58.2959 59.2813 58.9533 54.272 58.9533 47.4853C58.9533 42.3 58.6173 38.0973 57.9413 34.8866C57.2653 31.6733 56.3212 29.368 55.1159 27.9707C53.9106 26.5733 52.4506 25.8733 50.7373 25.8733C49.1813 25.8733 47.8799 26.3373 46.8319 27.26C45.7826 28.184 44.9359 29.5146 44.2946 31.2493C43.6519 32.9866 43.1946 35.1013 42.9253 37.592C42.6533 40.084 42.5199 42.896 42.5199 46.0293ZM50.3652 70.244C45.4946 70.244 41.8693 68.328 39.4919 64.4946C37.1119 60.6626 35.9226 54.8466 35.9226 47.0426C35.9226 42.896 36.2906 39.312 37.0226 36.292C37.7546 33.268 38.7813 30.772 40.1 28.8C41.42 26.8266 43.0026 25.364 44.8519 24.4186C46.6999 23.472 48.72 23 50.9053 23C55.844 23 59.5186 24.9053 61.9319 28.7133C64.3439 32.5253 65.5492 38.2866 65.5492 45.996C65.5492 53.976 64.2572 60.0146 61.6772 64.1066C59.0946 68.1973 55.3252 70.244 50.3652 70.244Z" fill="#040606"/>
<path d="M345.481 428.137C346.315 418.185 351.927 411.215 351.927 411.215H345.481H339.035C339.035 411.215 344.648 418.185 345.481 428.137Z" fill="#040606"/>
<path d="M336.141 439.407C337.421 439.407 338.643 439.144 339.752 438.677L339.836 438.763C337.592 440.468 336.141 443.165 336.141 446.201C336.141 451.36 340.323 455.541 345.481 455.541C350.637 455.541 354.819 451.36 354.819 446.201C354.819 442.953 353.16 440.091 350.64 438.419C351.897 439.05 353.316 439.407 354.819 439.407C359.977 439.407 364.159 435.225 364.159 430.067C364.159 424.91 359.977 420.729 354.819 420.729C349.799 420.729 345.704 424.691 345.491 429.66L345.471 429.646C345.249 424.685 341.16 420.729 336.141 420.729C330.985 420.729 326.803 424.91 326.803 430.067C326.803 435.225 330.985 439.407 336.141 439.407Z" fill="#040606"/>
<path d="M355.271 474.134C355.271 472.827 355.197 471.84 355.051 471.177C354.905 470.509 354.645 469.968 354.275 469.552C353.901 469.134 353.365 468.807 352.667 468.572C351.968 468.334 351.089 468.153 350.029 468.031C348.971 467.907 347.572 467.821 345.835 467.777V465.307H370.829V467.777C368.325 467.891 366.537 468.04 365.468 468.233C364.396 468.422 363.58 468.712 363.017 469.095C362.452 469.479 362.04 470.02 361.78 470.719C361.521 471.417 361.392 472.557 361.392 474.134V501.561C361.392 502.463 361.551 503.122 361.865 503.54C362.181 503.957 362.641 504.167 363.252 504.167C363.975 504.167 365 503.795 366.331 503.049C367.66 502.304 369.305 501.28 371.267 499.972L372.756 502.576L356.927 512.01H355.068C355.204 509.848 355.271 506.849 355.271 503.016V474.134Z" fill="#040606"/>
<path d="M341.237 488.98C341.237 481.632 340.556 476.236 339.191 472.797C337.828 469.358 335.712 467.64 332.851 467.64C330.123 467.64 328.097 469.259 326.779 472.496C325.46 475.729 324.803 480.739 324.803 487.524C324.803 492.71 325.137 496.913 325.815 500.124C326.491 503.339 327.435 505.641 328.64 507.04C329.846 508.437 331.304 509.136 333.019 509.136C334.576 509.136 335.876 508.674 336.924 507.749C337.973 506.827 338.82 505.496 339.463 503.76C340.104 502.024 340.56 499.909 340.831 497.419C341.103 494.927 341.237 492.115 341.237 488.98ZM333.391 464.767C338.261 464.767 341.887 466.683 344.263 470.517C346.643 474.348 347.832 480.164 347.832 487.968C347.832 492.115 347.466 495.697 346.735 498.719C345.999 501.743 344.972 504.24 343.655 506.21C342.335 508.184 340.753 509.645 338.904 510.592C337.056 511.537 335.036 512.01 332.851 512.01C327.912 512.01 324.237 510.107 321.824 506.298C319.412 502.484 318.207 496.724 318.207 489.015C318.207 481.033 319.499 474.996 322.079 470.905C324.661 466.812 328.432 464.767 333.391 464.767Z" fill="#040606"/>
<path d="M191.36 364.784C189.707 345.029 178.568 331.195 178.568 331.195H191.36H204.151C204.151 331.195 193.015 345.029 191.36 364.784Z" fill="#040606"/>
<path d="M228.429 368.613C228.429 358.376 220.132 350.08 209.896 350.08C199.939 350.08 191.817 357.931 191.38 367.78L191.339 367.808C190.916 357.948 182.792 350.08 172.828 350.08C162.589 350.08 154.291 358.376 154.291 368.613C154.291 378.851 162.589 387.149 172.828 387.149C175.808 387.149 178.624 386.443 181.121 385.189C176.121 388.509 172.828 394.191 172.828 400.637C172.828 410.874 181.123 419.17 191.36 419.17C201.597 419.17 209.896 410.874 209.896 400.637C209.896 394.609 207.019 389.26 202.563 385.876L202.728 385.701C204.932 386.633 207.355 387.149 209.896 387.149C220.132 387.149 228.429 378.851 228.429 368.613Z" fill="#040606"/>
<path d="M191.36 169.372C189.707 189.127 178.568 202.961 178.568 202.961H191.36H204.151C204.151 202.961 193.015 189.127 191.36 169.372Z" fill="#040606"/>
<path d="M209.896 147.005C207.355 147.005 204.932 147.524 202.728 148.455L202.563 148.28C207.019 144.896 209.896 139.547 209.896 133.519C209.896 123.281 201.597 114.985 191.36 114.985C181.123 114.985 172.828 123.281 172.828 133.519C172.828 139.967 176.121 145.647 181.121 148.967C178.624 147.713 175.808 147.005 172.828 147.005C162.589 147.005 154.291 155.305 154.291 165.543C154.291 175.78 162.589 184.077 172.828 184.077C182.792 184.077 190.916 176.208 191.339 166.348L191.38 166.376C191.817 176.225 199.939 184.077 209.896 184.077C220.132 184.077 228.429 175.78 228.429 165.543C228.429 155.305 220.132 147.005 209.896 147.005Z" fill="#040606"/>
<path d="M262.024 117.975C260.371 137.729 249.232 151.564 249.232 151.564H262.024H274.815C274.815 151.564 263.677 137.729 262.024 117.975Z" fill="#040606"/>
<path d="M280.56 95.6093C278.016 95.6093 275.593 96.1267 273.389 97.0573L273.227 96.884C277.68 93.5 280.56 88.1493 280.56 82.1213C280.56 71.884 272.259 63.588 262.024 63.588C251.787 63.588 243.489 71.884 243.489 82.1213C243.489 88.5707 246.785 94.2507 251.783 97.5707C249.285 96.3174 246.471 95.6093 243.489 95.6093C233.251 95.6093 224.953 103.909 224.953 114.147C224.953 124.383 233.251 132.68 243.489 132.68C253.455 132.68 261.581 124.811 262.003 114.952L262.044 114.979C262.479 124.829 270.6 132.68 280.56 132.68C290.793 132.68 299.091 124.383 299.091 114.147C299.091 103.909 290.793 95.6093 280.56 95.6093Z" fill="#040606"/>
<path d="M262.024 418.443C263.676 398.688 274.815 384.853 274.815 384.853H262.024H249.232C249.232 384.853 260.368 398.688 262.024 418.443Z" fill="#040606"/>
<path d="M243.487 440.808C246.028 440.808 248.451 440.292 250.655 439.36L250.82 439.533C246.364 442.917 243.487 448.268 243.487 454.296C243.487 464.533 251.785 472.829 262.024 472.829C272.259 472.829 280.555 464.533 280.555 454.296C280.555 447.848 277.261 442.167 272.261 438.848C274.759 440.1 277.575 440.808 280.555 440.808C290.793 440.808 299.091 432.508 299.091 422.271C299.091 412.034 290.793 403.739 280.555 403.739C270.591 403.739 262.467 411.605 262.044 421.467L262.003 421.437C261.565 411.588 253.444 403.739 243.487 403.739C233.251 403.739 224.953 412.034 224.953 422.271C224.953 432.508 233.251 440.808 243.487 440.808Z" fill="#040606"/>
<path d="M262.024 225.064C260.371 244.817 249.232 258.653 249.232 258.653H262.024H274.815C274.815 258.653 263.677 244.817 262.024 225.064Z" fill="#040606"/>
<path d="M280.56 202.697C278.016 202.697 275.593 203.215 273.389 204.145L273.227 203.972C277.68 200.588 280.56 195.239 280.56 189.209C280.56 178.972 272.259 170.677 262.024 170.677C251.787 170.677 243.489 178.972 243.489 189.209C243.489 195.659 246.785 201.34 251.783 204.659C249.285 203.407 246.471 202.697 243.489 202.697C233.251 202.697 224.953 210.997 224.953 221.236C224.953 231.471 233.251 239.768 243.489 239.768C253.455 239.768 261.581 231.901 262.003 222.04L262.044 222.068C262.479 231.917 270.6 239.768 280.56 239.768C290.793 239.768 299.091 231.471 299.091 221.236C299.091 210.997 290.793 202.697 280.56 202.697Z" fill="#040606"/>
<path d="M262.024 311.355C260.371 291.599 249.232 277.764 249.232 277.764H262.024H274.815C274.815 277.764 263.677 291.599 262.024 311.355Z" fill="#040606"/>
<path d="M299.091 315.183C299.091 304.947 290.793 296.649 280.56 296.649C270.6 296.649 262.479 304.5 262.044 314.349L262.003 314.377C261.581 304.517 253.455 296.649 243.489 296.649C233.251 296.649 224.953 304.947 224.953 315.183C224.953 325.419 233.251 333.72 243.489 333.72C246.471 333.72 249.285 333.012 251.783 331.759C246.785 335.079 243.489 340.759 243.489 347.207C243.489 357.445 251.787 365.741 262.024 365.741C272.259 365.741 280.56 357.445 280.56 347.207C280.56 341.18 277.68 335.829 273.227 332.445L273.389 332.272C275.593 333.203 278.016 333.72 280.56 333.72C290.793 333.72 299.091 325.419 299.091 315.183Z" fill="#040606"/>
<path d="M120.697 117.975C119.045 137.729 107.907 151.564 107.907 151.564H120.697H133.489C133.489 151.564 122.353 137.729 120.697 117.975Z" fill="#040606"/>
<path d="M139.235 95.6093C136.691 95.6093 134.268 96.1267 132.064 97.0573L131.901 96.884C136.355 93.5 139.235 88.1493 139.235 82.1213C139.235 71.884 130.935 63.588 120.697 63.588C110.461 63.588 102.164 71.884 102.164 82.1213C102.164 88.5707 105.46 94.2507 110.457 97.5707C107.96 96.3174 105.145 95.6093 102.164 95.6093C91.9254 95.6093 83.6281 103.909 83.6281 114.147C83.6281 124.383 91.9254 132.68 102.164 132.68C112.131 132.68 120.255 124.811 120.677 114.952L120.719 114.979C121.155 124.829 129.275 132.68 139.235 132.68C149.468 132.68 157.767 124.383 157.767 114.147C157.767 103.909 149.468 95.6093 139.235 95.6093Z" fill="#040606"/>
<path d="M120.697 225.064C119.045 244.817 107.907 258.653 107.907 258.653H120.697H133.489C133.489 258.653 122.353 244.817 120.697 225.064Z" fill="#040606"/>
<path d="M139.235 202.697C136.691 202.697 134.268 203.215 132.064 204.145L131.901 203.972C136.355 200.588 139.235 195.239 139.235 189.209C139.235 178.972 130.935 170.677 120.697 170.677C110.461 170.677 102.164 178.972 102.164 189.209C102.164 195.659 105.46 201.34 110.457 204.659C107.96 203.407 105.145 202.697 102.164 202.697C91.9254 202.697 83.6281 210.997 83.6281 221.236C83.6281 231.471 91.9254 239.768 102.164 239.768C112.131 239.768 120.255 231.901 120.677 222.04L120.719 222.068C121.155 231.917 129.275 239.768 139.235 239.768C149.468 239.768 157.767 231.471 157.767 221.236C157.767 210.997 149.468 202.697 139.235 202.697Z" fill="#040606"/>
<path d="M120.697 311.355C119.045 291.599 107.907 277.764 107.907 277.764H120.697H133.489C133.489 277.764 122.353 291.599 120.697 311.355Z" fill="#040606"/>
<path d="M157.767 315.183C157.767 304.947 149.468 296.649 139.235 296.649C129.275 296.649 121.155 304.5 120.719 314.349L120.677 314.377C120.255 304.517 112.131 296.649 102.164 296.649C91.9254 296.649 83.6281 304.947 83.6281 315.183C83.6281 325.419 91.9254 333.72 102.164 333.72C105.145 333.72 107.96 333.012 110.457 331.759C105.46 335.079 102.164 340.759 102.164 347.207C102.164 357.445 110.461 365.741 120.697 365.741C130.935 365.741 139.235 357.445 139.235 347.207C139.235 341.18 136.355 335.829 131.901 332.445L132.064 332.272C134.268 333.203 136.691 333.72 139.235 333.72C149.468 333.72 157.767 325.419 157.767 315.183Z" fill="#040606"/>
<path d="M120.697 418.443C122.351 398.688 133.489 384.853 133.489 384.853H120.697H107.907C107.907 384.853 119.043 398.688 120.697 418.443Z" fill="#040606"/>
<path d="M102.161 440.808C104.704 440.808 107.125 440.292 109.329 439.36L109.495 439.533C105.039 442.917 102.161 448.268 102.161 454.296C102.161 464.533 110.46 472.829 120.697 472.829C130.935 472.829 139.229 464.533 139.229 454.296C139.229 447.848 135.936 442.167 130.936 438.848C133.433 440.1 136.249 440.808 139.229 440.808C149.468 440.808 157.767 432.508 157.767 422.271C157.767 412.034 149.468 403.739 139.229 403.739C129.265 403.739 121.14 411.605 120.719 421.467L120.677 421.437C120.24 411.588 112.119 403.739 102.161 403.739C91.9254 403.739 83.6281 412.034 83.6281 422.271C83.6281 432.508 91.9254 440.808 102.161 440.808Z" fill="#040606"/>
</svg>
