<svg width="383" height="536" viewBox="0 0 383 536" fill="none" xmlns="http://www.w3.org/2000/svg">
<rect x="1" y="1" width="381" height="534" rx="14" fill="white"/>
<rect x="1" y="1" width="381" height="534" rx="14" stroke="black" stroke-width="2"/>
<path d="M29.6771 106.872C28.8437 116.825 23.2312 123.796 23.2312 123.796H29.6771H36.1235C36.1235 123.796 30.5099 116.825 29.6771 106.872Z" fill="#040606"/>
<path d="M39.0161 95.604C37.7364 95.604 36.5156 95.8653 35.4057 96.3333L35.3219 96.2466C37.5667 94.5413 39.0161 91.8453 39.0161 88.808C39.0161 83.6493 34.836 79.4693 29.6771 79.4693C24.5203 79.4693 20.3396 83.6493 20.3396 88.808C20.3396 92.0573 21.9989 94.9187 24.5177 96.592C23.2604 95.9613 21.8417 95.604 20.3396 95.604C15.1808 95.604 11 99.7853 11 104.944C11 110.101 15.1808 114.281 20.3396 114.281C25.3599 114.281 29.4547 110.319 29.6683 105.351L29.688 105.363C29.9084 110.325 33.9979 114.281 39.0161 114.281C44.1735 114.281 48.3563 110.101 48.3563 104.944C48.3563 99.7853 44.1735 95.604 39.0161 95.604Z" fill="#040606"/>
<path d="M21.086 34.768C21.086 36.0986 21.2427 37.3493 21.5584 38.5226C21.874 39.6946 22.3823 40.708 23.0812 41.5666C23.7808 42.4213 24.688 43.1053 25.8031 43.6106C26.9193 44.12 28.2907 44.3707 29.9131 44.3707C31.7833 44.3707 33.3563 44.0066 34.6317 43.2733C35.9027 42.54 36.8511 41.4706 37.4708 40.0613C38.0907 38.652 38.4021 37.0226 38.4021 35.1746C38.4021 33.1453 38.0339 31.4253 37.3031 30.0186C36.5697 28.608 35.562 27.5653 34.2755 26.888C32.9907 26.212 31.5131 25.8733 29.8453 25.8733C27.0052 25.8733 24.8333 26.6453 23.3355 28.1906C21.8355 29.7346 21.086 31.9267 21.086 34.768ZM20.7141 56.952C20.7141 58.4173 20.8823 59.7893 21.2219 61.0626C21.5584 62.336 22.0937 63.436 22.8271 64.36C23.5599 65.284 24.5021 66.0173 25.6531 66.5573C26.8016 67.1 28.1995 67.3693 29.8453 67.3693C31.6921 67.3693 33.2787 66.9907 34.5979 66.2373C35.9161 65.4813 36.9193 64.36 37.6079 62.8707C38.2953 61.3827 38.6375 59.624 38.6375 57.5946C38.6375 55.4306 38.2651 53.5666 37.5229 51.9973C36.7787 50.4306 35.7303 49.2373 34.3776 48.4133C33.0251 47.5893 31.4568 47.1786 29.6771 47.1786C28.0084 47.1786 26.6036 47.44 25.4672 47.9573C24.3276 48.4773 23.4036 49.1746 22.6932 50.0546C21.9823 50.9333 21.4751 51.964 21.1697 53.148C20.8661 54.3333 20.7141 55.5986 20.7141 56.952ZM37.2849 45.32L37.3531 45.7573C39.9021 46.7493 41.8292 48.2 43.1364 50.104C44.4432 52.012 45.0975 54.3026 45.0975 56.9853C45.0975 59.624 44.4661 61.948 43.2036 63.9546C41.9401 65.9613 40.1084 67.5107 37.7073 68.604C35.3084 69.6987 32.5047 70.244 29.3021 70.244C26.3041 70.244 23.674 69.7426 21.4084 68.7386C19.1417 67.736 17.3823 66.2706 16.1317 64.3426C14.8808 62.4146 14.2547 60.1426 14.2547 57.528C14.2547 55.5653 14.5927 53.8626 15.2693 52.4213C15.9453 50.9773 16.8308 49.7893 17.9245 48.8546C19.0161 47.9186 20.3984 47.068 22.0667 46.3013L21.9989 45.86C17.1505 43.7626 14.7287 40.168 14.7287 35.0733C14.7287 32.7506 15.3645 30.676 16.6401 28.8493C17.9136 27.024 19.7265 25.592 22.0849 24.5546C24.438 23.5186 27.0489 23 29.9131 23C33.1584 23 35.8869 23.4573 38.0975 24.368C40.3063 25.2813 41.9697 26.6 43.086 28.324C44.2005 30.0493 44.7584 32.1173 44.7584 34.5293C44.7584 37.0106 44.1505 39.148 42.9344 40.94C41.7156 42.7333 39.8333 44.192 37.2849 45.32Z" fill="#040606"/>
<path d="M353.045 428.137C353.878 418.185 359.492 411.215 359.492 411.215H353.045H346.6C346.6 411.215 352.213 418.185 353.045 428.137Z" fill="#040606"/>
<path d="M343.706 439.407C344.986 439.407 346.208 439.144 347.317 438.677L347.401 438.763C345.156 440.468 343.706 443.165 343.706 446.201C343.706 451.36 347.886 455.541 353.045 455.541C358.202 455.541 362.382 451.36 362.382 446.201C362.382 442.953 360.724 440.091 358.205 438.419C359.461 439.05 360.88 439.407 362.382 439.407C367.542 439.407 371.722 435.225 371.722 430.067C371.722 424.91 367.542 420.729 362.382 420.729C357.362 420.729 353.268 424.691 353.054 429.66L353.034 429.646C352.814 424.685 348.724 420.729 343.706 420.729C338.549 420.729 334.366 424.91 334.366 430.067C334.366 435.225 338.549 439.407 343.706 439.407Z" fill="#040606"/>
<path d="M361.636 500.243C361.636 498.913 361.48 497.661 361.164 496.488C360.849 495.315 360.341 494.301 359.641 493.444C358.942 492.588 358.034 491.907 356.92 491.4C355.804 490.891 354.433 490.639 352.809 490.639C350.94 490.639 349.366 491.005 348.09 491.739C346.82 492.471 345.872 493.54 345.252 494.949C344.632 496.358 344.321 497.988 344.321 499.836C344.321 501.864 344.689 503.585 345.42 504.992C346.153 506.403 347.16 507.446 348.448 508.122C349.732 508.798 351.21 509.136 352.878 509.136C355.717 509.136 357.889 508.365 359.386 506.819C360.888 505.276 361.636 503.083 361.636 500.243ZM362.009 478.058C362.009 476.592 361.841 475.221 361.5 473.948C361.164 472.674 360.628 471.574 359.896 470.649C359.162 469.727 358.221 468.993 357.07 468.453C355.921 467.91 354.522 467.64 352.878 467.64C351.03 467.64 349.444 468.02 348.125 468.773C346.806 469.528 345.802 470.649 345.116 472.139C344.428 473.628 344.085 475.386 344.085 477.416C344.085 479.58 344.457 481.445 345.2 483.013C345.944 484.58 346.992 485.773 348.345 486.596C349.698 487.42 351.266 487.832 353.045 487.832C354.713 487.832 356.118 487.571 357.256 487.053C358.396 486.533 359.32 485.836 360.029 484.956C360.74 484.079 361.248 483.047 361.552 481.861C361.856 480.677 362.009 479.412 362.009 478.058ZM345.437 489.691L345.369 489.252C342.821 488.26 340.894 486.809 339.586 484.907C338.28 483 337.626 480.707 337.626 478.024C337.626 475.386 338.257 473.063 339.518 471.056C340.782 469.049 342.614 467.5 345.016 466.407C347.414 465.312 350.217 464.767 353.42 464.767C356.418 464.767 359.049 465.268 361.314 466.272C363.581 467.274 365.341 468.74 366.592 470.668C367.842 472.595 368.468 474.867 368.468 477.481C368.468 479.445 368.129 481.146 367.453 482.588C366.777 484.032 365.892 485.221 364.797 486.156C363.706 487.091 362.324 487.943 360.656 488.709L360.724 489.149C365.572 491.246 367.993 494.843 367.993 499.937C367.993 502.26 367.358 504.334 366.082 506.161C364.809 507.985 362.996 509.417 360.637 510.456C358.284 511.493 355.674 512.01 352.809 512.01C349.564 512.01 346.836 511.555 344.625 510.641C342.417 509.729 340.753 508.41 339.636 506.686C338.522 504.961 337.964 502.893 337.964 500.48C337.964 498 338.572 495.861 339.789 494.071C341.008 492.277 342.889 490.819 345.437 489.691Z" fill="#040606"/>
<path d="M191.765 199.321C190.113 219.076 178.973 232.911 178.973 232.911H191.765H204.557C204.557 232.911 193.42 219.076 191.765 199.321Z" fill="#040606"/>
<path d="M210.301 176.956C207.76 176.956 205.338 177.472 203.134 178.404L202.968 178.229C207.424 174.845 210.301 169.496 210.301 163.468C210.301 153.231 202.004 144.935 191.765 144.935C181.529 144.935 173.233 153.231 173.233 163.468C173.233 169.915 176.526 175.596 181.526 178.916C179.03 177.663 176.213 176.956 173.233 176.956C162.994 176.956 154.697 185.255 154.697 195.492C154.697 205.729 162.994 214.025 173.233 214.025C183.197 214.025 191.322 206.157 191.745 196.297L191.786 196.325C192.224 206.175 200.345 214.025 210.301 214.025C220.538 214.025 228.836 205.729 228.836 195.492C228.836 185.255 220.538 176.956 210.301 176.956Z" fill="#040606"/>
<path d="M191.765 345.787C193.417 326.032 204.557 312.197 204.557 312.197H191.765H178.973C178.973 312.197 190.11 326.032 191.765 345.787Z" fill="#040606"/>
<path d="M173.229 368.153C175.773 368.153 178.194 367.635 180.398 366.705L180.562 366.879C176.109 370.263 173.229 375.612 173.229 381.64C173.229 391.877 181.529 400.173 191.765 400.173C202.001 400.173 210.3 391.877 210.3 381.64C210.3 375.192 207.004 369.512 202.006 366.192C204.502 367.445 207.317 368.153 210.3 368.153C220.538 368.153 228.836 359.853 228.836 349.616C228.836 339.379 220.538 331.081 210.3 331.081C200.333 331.081 192.208 338.951 191.786 348.811L191.745 348.783C191.309 338.933 183.188 331.081 173.229 331.081C162.994 331.081 154.697 339.379 154.697 349.616C154.697 359.853 162.994 368.153 173.229 368.153Z" fill="#040606"/>
<path d="M262.429 117.976C260.777 137.731 249.637 151.565 249.637 151.565H262.429H275.221C275.221 151.565 264.084 137.731 262.429 117.976Z" fill="#040606"/>
<path d="M280.965 95.6107C278.421 95.6107 276 96.128 273.796 97.0587L273.632 96.884C278.085 93.5 280.965 88.1507 280.965 82.1227C280.965 71.8853 272.665 63.5893 262.429 63.5893C252.193 63.5893 243.896 71.8853 243.896 82.1227C243.896 88.5707 247.19 94.2507 252.188 97.572C249.692 96.3187 246.877 95.6107 243.896 95.6107C233.656 95.6107 225.358 103.911 225.358 114.147C225.358 124.384 233.656 132.681 243.896 132.681C253.861 132.681 261.986 124.812 262.409 114.952L262.449 114.98C262.885 124.829 271.006 132.681 280.965 132.681C291.2 132.681 299.497 124.384 299.497 114.147C299.497 103.911 291.2 95.6107 280.965 95.6107Z" fill="#040606"/>
<path d="M262.429 418.443C264.081 398.689 275.221 384.855 275.221 384.855H262.429H249.637C249.637 384.855 260.774 398.689 262.429 418.443Z" fill="#040606"/>
<path d="M243.893 440.809C246.434 440.809 248.856 440.292 251.061 439.361L251.226 439.534C246.77 442.919 243.893 448.269 243.893 454.297C243.893 464.534 252.19 472.831 262.429 472.831C272.665 472.831 280.961 464.534 280.961 454.297C280.961 447.849 277.668 442.168 272.668 438.849C275.164 440.101 277.981 440.809 280.961 440.809C291.2 440.809 299.497 432.509 299.497 422.272C299.497 412.036 291.2 403.74 280.961 403.74C270.997 403.74 262.872 411.607 262.449 421.468L262.409 421.439C261.97 411.589 253.85 403.74 243.893 403.74C233.656 403.74 225.358 412.036 225.358 422.272C225.358 432.509 233.656 440.809 243.893 440.809Z" fill="#040606"/>
<path d="M262.429 278.609C260.777 298.363 249.637 312.197 249.637 312.197H262.429H275.221C275.221 312.197 264.084 298.363 262.429 278.609Z" fill="#040606"/>
<path d="M280.965 256.243C278.421 256.243 276 256.76 273.796 257.691L273.632 257.517C278.085 254.133 280.965 248.784 280.965 242.755C280.965 232.519 272.665 224.223 262.429 224.223C252.193 224.223 243.896 232.519 243.896 242.755C243.896 249.203 247.19 254.884 252.188 258.203C249.692 256.951 246.877 256.243 243.896 256.243C233.656 256.243 225.358 264.543 225.358 274.78C225.358 285.017 233.656 293.312 243.896 293.312C253.861 293.312 261.986 285.445 262.409 275.584L262.449 275.613C262.885 285.463 271.006 293.312 280.965 293.312C291.2 293.312 299.497 285.017 299.497 274.78C299.497 264.543 291.2 256.243 280.965 256.243Z" fill="#040606"/>
<path d="M121.104 117.976C119.452 137.731 108.312 151.565 108.312 151.565H121.104H133.896C133.896 151.565 122.758 137.731 121.104 117.976Z" fill="#040606"/>
<path d="M139.64 95.6107C137.096 95.6107 134.674 96.128 132.47 97.0587L132.307 96.884C136.76 93.5 139.64 88.1507 139.64 82.1227C139.64 71.8853 131.34 63.5893 121.104 63.5893C110.867 63.5893 102.57 71.8853 102.57 82.1227C102.57 88.5707 105.865 94.2507 110.863 97.572C108.367 96.3187 105.552 95.6107 102.57 95.6107C92.3312 95.6107 84.0333 103.911 84.0333 114.147C84.0333 124.384 92.3312 132.681 102.57 132.681C112.536 132.681 120.661 124.812 121.083 114.952L121.125 114.98C121.56 124.829 129.681 132.681 139.64 132.681C149.874 132.681 158.172 124.384 158.172 114.147C158.172 103.911 149.874 95.6107 139.64 95.6107Z" fill="#040606"/>
<path d="M121.104 278.609C119.452 298.363 108.312 312.197 108.312 312.197H121.104H133.896C133.896 312.197 122.758 298.363 121.104 278.609Z" fill="#040606"/>
<path d="M139.64 256.243C137.096 256.243 134.674 256.76 132.47 257.691L132.307 257.517C136.76 254.133 139.64 248.784 139.64 242.755C139.64 232.519 131.34 224.223 121.104 224.223C110.867 224.223 102.57 232.519 102.57 242.755C102.57 249.203 105.865 254.884 110.863 258.203C108.367 256.951 105.552 256.243 102.57 256.243C92.3312 256.243 84.0333 264.543 84.0333 274.78C84.0333 285.017 92.3312 293.312 102.57 293.312C112.536 293.312 120.661 285.445 121.083 275.584L121.125 275.613C121.56 285.463 129.681 293.312 139.64 293.312C149.874 293.312 158.172 285.017 158.172 274.78C158.172 264.543 149.874 256.243 139.64 256.243Z" fill="#040606"/>
<path d="M121.104 418.443C122.756 398.689 133.896 384.855 133.896 384.855H121.104H108.312C108.312 384.855 119.449 398.689 121.104 418.443Z" fill="#040606"/>
<path d="M102.567 440.809C105.109 440.809 107.531 440.292 109.735 439.361L109.901 439.534C105.445 442.919 102.567 448.269 102.567 454.297C102.567 464.534 110.865 472.831 121.104 472.831C131.34 472.831 139.636 464.534 139.636 454.297C139.636 447.849 136.342 442.168 131.342 438.849C133.838 440.101 136.656 440.809 139.636 440.809C149.874 440.809 158.172 432.509 158.172 422.272C158.172 412.036 149.874 403.74 139.636 403.74C129.672 403.74 121.546 411.607 121.125 421.468L121.083 421.439C120.645 411.589 112.525 403.74 102.567 403.74C92.3312 403.74 84.0333 412.036 84.0333 422.272C84.0333 432.509 92.3312 440.809 102.567 440.809Z" fill="#040606"/>
</svg>
