<svg width="383" height="536" viewBox="0 0 383 536" fill="none" xmlns="http://www.w3.org/2000/svg">
<rect x="1" y="1" width="381" height="534" rx="14" fill="white"/>
<rect x="1" y="1" width="381" height="534" rx="14" stroke="black" stroke-width="2"/>
<path d="M29.4908 101.791C28.6486 111.847 22.98 118.892 22.98 118.892H29.4908H36.0035C36.0035 118.892 30.3324 111.847 29.4908 101.791Z" fill="#100F0D"/>
<path d="M41.6497 86.8837C33.5844 81.3107 29.5991 75.4811 29.4934 75.331V75.3233L29.4909 75.3264L29.4885 75.3233V75.331C29.3852 75.4811 25.4 81.3107 17.3345 86.8837C9.16103 92.5308 7.2995 99.5762 10.2232 104.892C13.1469 110.209 24.8381 112.798 29.4909 102.24C34.1438 112.798 45.8369 110.209 48.758 104.892C51.6825 99.5762 49.8214 92.5308 41.6497 86.8837Z" fill="#100F0D"/>
<path d="M20.8121 32.9905C20.8121 34.3346 20.9698 35.5967 21.2889 36.7831C21.6072 37.9679 22.1219 38.9918 22.8271 39.858C23.5333 40.7242 24.4512 41.414 25.5767 41.9245C26.7054 42.438 28.0902 42.6932 29.73 42.6932C31.62 42.6932 33.2089 42.3235 34.4964 41.5826C35.7823 40.8433 36.7405 39.7636 37.3664 38.3391C37.9924 36.9145 38.3065 35.2673 38.3065 33.4003C38.3065 31.3509 37.935 29.6124 37.196 28.1909C36.4548 26.7664 35.4366 25.7131 34.1376 25.0278C32.8387 24.3457 31.3468 24.0039 29.6618 24.0039C26.7918 24.0039 24.5979 24.7835 23.0845 26.3457C21.5691 27.9048 20.8121 30.1197 20.8121 32.9905ZM20.4363 55.4043C20.4363 56.8861 20.6055 58.2705 20.9481 59.5574C21.2889 60.8442 21.8302 61.9548 22.5703 62.889C23.3117 63.8217 24.262 64.5641 25.4245 65.1086C26.5864 65.6577 27.9991 65.9315 29.6618 65.9315C31.5275 65.9315 33.1304 65.5479 34.4627 64.7854C35.7949 64.0213 36.8082 62.889 37.5042 61.3841C38.1978 59.8806 38.5452 58.1034 38.5452 56.054C38.5452 53.8684 38.1693 51.983 37.4184 50.3991C36.6674 48.8152 35.6064 47.6103 34.2397 46.7781C32.8736 45.946 31.2901 45.5299 29.4907 45.5299C27.8051 45.5299 26.3871 45.7929 25.2366 46.3157C24.0869 46.8416 23.1522 47.5453 22.4356 48.4347C21.7178 49.3225 21.2042 50.3635 20.8968 51.5622C20.5891 52.7579 20.4363 54.037 20.4363 55.4043ZM37.1785 43.6506L37.2475 44.093C39.8219 45.0968 41.7698 46.5616 43.0906 48.4857C44.4113 50.4114 45.0712 52.7269 45.0712 55.4384C45.0712 58.1034 44.4336 60.4529 43.1588 62.4791C41.8821 64.5069 40.0316 66.0722 37.6051 67.1782C35.1798 68.2825 32.3493 68.8347 29.1132 68.8347C26.0837 68.8347 23.4252 68.3258 21.1354 67.3127C18.8473 66.2996 17.069 64.8209 15.8058 62.8705C14.5418 60.9231 13.9092 58.6293 13.9092 55.9875C13.9092 54.0045 14.2505 52.283 14.9351 50.8275C15.6179 49.369 16.5121 48.1671 17.6177 47.2221C18.7203 46.2786 20.1174 45.417 21.8024 44.6421L21.7335 44.1982C16.8353 42.0791 14.3877 38.4458 14.3877 33.2983C14.3877 30.9519 15.0306 28.856 16.3193 27.0107C17.6044 25.1655 19.4388 23.7193 21.8198 22.6706C24.1986 21.6235 26.8359 21.0991 29.73 21.0991C33.0096 21.0991 35.7659 21.5616 37.9997 22.4835C40.231 23.4038 41.9106 24.737 43.0392 26.4802C44.166 28.2234 44.7292 30.3115 44.7292 32.7492C44.7292 35.2564 44.1153 37.4157 42.8852 39.2254C41.6551 41.0382 39.7537 42.5122 37.1785 43.6506Z" fill="#100F0D"/>
<path d="M356.211 434.151C357.052 424.096 362.721 417.05 362.721 417.05H356.211H349.698C349.698 417.05 355.369 424.096 356.211 434.151Z" fill="#100F0D"/>
<path d="M344.052 449.059C352.116 454.631 356.102 460.462 356.208 460.614V460.619L356.211 460.616L356.212 460.619V460.614C356.316 460.462 360.302 454.631 368.366 449.059C376.539 443.411 378.402 436.368 375.477 431.049C372.554 425.737 360.863 423.144 356.211 433.702C351.558 423.144 339.865 425.737 336.943 431.049C334.02 436.368 335.879 443.411 344.052 449.059Z" fill="#100F0D"/>
<path d="M364.891 502.953C364.891 501.607 364.732 500.345 364.413 499.159C364.095 497.974 363.581 496.951 362.874 496.084C362.169 495.219 361.252 494.529 360.126 494.018C358.997 493.504 357.612 493.249 355.973 493.249C354.083 493.249 352.494 493.619 351.204 494.36C349.92 495.1 348.961 496.18 348.336 497.606C347.71 499.027 347.396 500.675 347.396 502.541C347.396 504.593 347.767 506.33 348.505 507.753C349.246 509.176 350.265 510.231 351.564 510.914C352.862 511.598 354.355 511.94 356.041 511.94C358.91 511.94 361.103 511.16 362.617 509.598C364.133 508.039 364.891 505.822 364.891 502.953ZM365.267 480.538C365.267 479.056 365.097 477.673 364.754 476.386C364.413 475.099 363.872 473.987 363.131 473.053C362.39 472.12 361.439 471.379 360.276 470.833C359.116 470.284 357.703 470.012 356.041 470.012C354.174 470.012 352.571 470.396 351.238 471.157C349.906 471.921 348.893 473.053 348.199 474.558C347.503 476.063 347.158 477.838 347.158 479.89C347.158 482.075 347.534 483.959 348.282 485.544C349.036 487.127 350.095 488.333 351.462 489.165C352.828 489.999 354.412 490.412 356.211 490.412C357.897 490.412 359.315 490.149 360.464 489.626C361.615 489.101 362.549 488.397 363.267 487.507C363.985 486.621 364.498 485.579 364.805 484.383C365.112 483.184 365.267 481.905 365.267 480.538ZM348.524 492.291L348.456 491.849C345.88 490.847 343.933 489.38 342.612 487.458C341.291 485.53 340.631 483.215 340.631 480.503C340.631 477.838 341.268 475.492 342.542 473.465C343.822 471.438 345.671 469.87 348.097 468.765C350.522 467.659 353.354 467.109 356.588 467.109C359.618 467.109 362.276 467.616 364.565 468.629C366.856 469.642 368.633 471.123 369.896 473.072C371.16 475.019 371.793 477.313 371.793 479.956C371.793 481.941 371.451 483.66 370.767 485.116C370.085 486.574 369.19 487.775 368.085 488.72C366.982 489.667 365.586 490.525 363.9 491.3L363.968 491.744C368.866 493.865 371.313 497.496 371.313 502.644C371.313 504.992 370.671 507.086 369.383 508.933C368.096 510.777 366.263 512.224 363.881 513.271C361.504 514.32 358.867 514.843 355.973 514.843C352.692 514.843 349.937 514.38 347.702 513.46C345.472 512.539 343.791 511.206 342.663 509.463C341.537 507.72 340.972 505.631 340.972 503.193C340.972 500.687 341.586 498.526 342.816 496.716C344.047 494.904 345.948 493.43 348.524 492.291Z" fill="#100F0D"/>
<path d="M123.307 277.738C121.637 297.699 110.382 311.678 110.382 311.678H123.307H136.231C136.231 311.678 124.978 297.699 123.307 277.738Z" fill="#100F0D"/>
<path d="M147.436 248.156C131.427 237.094 123.518 225.525 123.311 225.224V225.207L123.306 225.215L123.302 225.207V225.224C123.096 225.525 115.184 237.094 99.1779 248.156C82.9553 259.366 79.2637 273.342 85.0675 283.897C90.869 294.443 114.072 299.586 123.306 278.63C132.542 299.586 155.746 294.443 161.548 283.897C167.349 273.342 163.657 259.366 147.436 248.156Z" fill="#100F0D"/>
<path d="M123.307 408.377C121.637 388.42 110.382 374.44 110.382 374.44H123.307H136.231C136.231 374.44 124.978 388.42 123.307 408.377Z" fill="#100F0D"/>
<path d="M147.436 437.961C131.427 449.021 123.518 460.592 123.311 460.894V460.909L123.306 460.902L123.302 460.909V460.894C123.096 460.592 115.184 449.021 99.1779 437.961C82.9553 426.753 79.2637 412.775 85.0675 402.223C90.869 391.675 114.072 386.533 123.306 407.486C132.542 386.533 155.746 391.675 161.548 402.223C167.349 412.775 163.657 426.753 147.436 437.961Z" fill="#100F0D"/>
<path d="M123.307 128.508C121.637 148.466 110.382 162.445 110.382 162.445H123.307H136.231C136.231 162.445 124.978 148.466 123.307 128.508Z" fill="#100F0D"/>
<path d="M147.436 98.925C131.428 87.8627 123.518 76.2931 123.311 75.9914V75.976L123.306 75.9837L123.302 75.976V75.9914C123.096 76.2931 115.185 87.8627 99.1786 98.925C82.9565 110.133 79.2637 124.111 85.0675 134.663C90.869 145.21 114.072 150.354 123.306 129.399C132.542 150.354 155.746 145.21 161.548 134.663C167.351 124.111 163.657 110.133 147.436 98.925Z" fill="#100F0D"/>
<path d="M263.21 277.738C261.54 297.699 250.286 311.678 250.286 311.678H263.21H276.135C276.135 311.678 264.881 297.699 263.21 277.738Z" fill="#100F0D"/>
<path d="M287.339 248.156C271.33 237.094 263.42 225.525 263.215 225.224V225.207L263.21 225.215L263.205 225.207V225.224C263 225.525 255.088 237.094 239.083 248.156C222.859 259.366 219.167 273.342 224.972 283.897C230.773 294.443 253.976 299.586 263.21 278.63C272.444 299.586 295.65 294.443 301.452 283.897C307.253 273.342 303.561 259.366 287.339 248.156Z" fill="#100F0D"/>
<path d="M263.21 408.377C261.54 388.42 250.286 374.44 250.286 374.44H263.21H276.135C276.135 374.44 264.881 388.42 263.21 408.377Z" fill="#100F0D"/>
<path d="M287.339 437.961C271.33 449.021 263.42 460.592 263.215 460.894V460.909L263.21 460.902L263.205 460.909V460.894C263 460.592 255.088 449.021 239.083 437.961C222.859 426.753 219.167 412.775 224.972 402.223C230.773 391.675 253.976 386.533 263.21 407.486C272.444 386.533 295.65 391.675 301.452 402.223C307.253 412.775 303.561 426.753 287.339 437.961Z" fill="#100F0D"/>
<path d="M263.21 128.508C261.54 148.466 250.286 162.445 250.286 162.445H263.21H276.135C276.135 162.445 264.881 148.466 263.21 128.508Z" fill="#100F0D"/>
<path d="M287.339 98.925C271.332 87.8627 263.42 76.2931 263.215 75.9914V75.976L263.21 75.9837L263.205 75.976V75.9914C263.001 76.2931 255.09 87.8627 239.083 98.925C222.86 110.133 219.167 124.111 224.972 134.663C230.773 145.21 253.976 150.354 263.21 129.399C272.444 150.354 295.65 145.21 301.452 134.663C307.255 124.111 303.561 110.133 287.339 98.925Z" fill="#100F0D"/>
<path d="M193.259 199.245C191.588 219.204 180.333 233.184 180.333 233.184H193.259H206.182C206.182 233.184 194.929 219.204 193.259 199.245Z" fill="#100F0D"/>
<path d="M217.386 169.664C201.379 158.601 193.469 147.032 193.263 146.73V146.713L193.259 146.722L193.254 146.713V146.73C193.048 147.032 185.137 158.601 169.13 169.664C152.908 180.871 149.215 194.849 155.019 205.403C160.821 215.95 184.023 221.091 193.259 200.136C202.493 221.091 225.697 215.95 231.499 205.403C237.302 194.849 233.61 180.871 217.386 169.664Z" fill="#100F0D"/>
<path d="M193.259 337.642C191.588 317.681 180.333 303.702 180.333 303.702H193.259H206.182C206.182 303.702 194.929 317.681 193.259 337.642Z" fill="#100F0D"/>
<path d="M217.386 367.223C201.379 378.286 193.469 389.853 193.263 390.157V390.174L193.259 390.165L193.254 390.174V390.157C193.048 389.853 185.137 378.286 169.13 367.223C152.908 356.016 149.215 342.036 155.019 331.484C160.821 320.937 184.023 315.796 193.259 336.749C202.493 315.796 225.697 320.937 231.499 331.484C237.302 342.036 233.61 356.016 217.386 367.223Z" fill="#100F0D"/>
</svg>
