<svg width="383" height="536" viewBox="0 0 383 536" fill="none" xmlns="http://www.w3.org/2000/svg">
<rect x="1" y="1" width="381" height="534" rx="14" fill="white"/>
<rect x="1" y="1" width="381" height="534" rx="14" stroke="black" stroke-width="2"/>
<path d="M36.0828 101.791C35.2414 111.847 29.571 118.892 29.571 118.892H36.0828H42.5946C42.5946 118.892 36.9243 111.847 36.0828 101.791Z" fill="#100F0D"/>
<path d="M48.2403 86.8837C40.1757 81.3107 36.1897 75.4811 36.0845 75.331V75.3233L36.0814 75.3264L36.0799 75.3233V75.331C35.9762 75.4811 31.9903 81.3107 23.9256 86.8837C15.7526 92.5308 13.8919 99.5762 16.8137 104.892C19.7386 110.209 31.4288 112.798 36.0814 102.24C40.7355 112.798 52.4273 110.209 55.3507 104.892C58.274 99.5762 56.4133 92.5308 48.2403 86.8837Z" fill="#100F0D"/>
<path d="M26.1914 59.3686C26.1914 60.6895 26.2656 61.6871 26.4141 62.3569C26.5611 63.0328 26.824 63.5773 27.1999 63.9995C27.5757 64.4218 28.1156 64.7512 28.8225 64.9894C29.5293 65.2292 30.4171 65.4117 31.4875 65.5354C32.5594 65.6623 33.9715 65.7458 35.7255 65.7922V68.2871H10.4735V65.7922C13.0009 65.6778 14.8074 65.5262 15.8886 65.3313C16.9713 65.1395 17.7973 64.8472 18.3649 64.4589C18.9372 64.0722 19.3517 63.5262 19.6147 62.8209C19.8776 62.114 20.0076 60.9633 20.0076 59.3686V31.6571C20.0076 30.7492 19.8467 30.081 19.5281 29.6572C19.2079 29.2365 18.7424 29.0245 18.1268 29.0245C17.3983 29.0245 16.3619 29.4004 15.0178 30.1537C13.6737 30.9054 12.0109 31.9417 10.0311 33.2626L8.52612 30.6332L24.5179 21.099H26.3971C26.2595 23.2846 26.1914 26.3147 26.1914 30.1877V59.3686Z" fill="#100F0D"/>
<path d="M40.3719 44.3699C40.3719 51.7958 41.0587 57.245 42.4399 60.719C43.815 64.1945 45.9525 65.9315 48.8449 65.9315C51.6012 65.9315 53.646 64.295 54.9793 61.0252C56.311 57.7569 56.9761 52.696 56.9761 45.8393C56.9761 40.6005 56.6358 36.3562 55.9537 33.1096C55.27 29.863 54.3157 27.5351 53.0984 26.1214C51.8811 24.7092 50.4072 24.0039 48.6748 24.0039C47.1018 24.0039 45.7886 24.471 44.729 25.4037C43.6695 26.3379 42.8126 27.6821 42.1645 29.4361C41.5165 31.1916 41.054 33.3277 40.7818 35.8427C40.5065 38.3608 40.3719 41.2022 40.3719 44.3699ZM48.2989 68.8347C43.3772 68.8347 39.7145 66.8982 37.3124 63.0251C34.9088 59.1536 33.707 53.276 33.707 45.3923C33.707 41.2021 34.0782 37.5812 34.8175 34.5295C35.5584 31.4747 36.5948 28.9519 37.9281 26.9597C39.2614 24.966 40.8591 23.4888 42.7291 22.5329C44.5945 21.577 46.6362 21.0991 48.8449 21.0991C53.8347 21.0991 57.5468 23.0233 59.9845 26.8731C62.4222 30.7245 63.641 36.5464 63.641 44.3358C63.641 52.399 62.3356 58.4978 59.7278 62.6323C57.1185 66.7683 53.3104 68.8347 48.2989 68.8347Z" fill="#100F0D"/>
<path d="M346.475 434.151C347.316 424.096 352.986 417.05 352.986 417.05H346.475H339.963C339.963 417.05 345.633 424.096 346.475 434.151Z" fill="#100F0D"/>
<path d="M334.317 449.059C342.382 454.631 346.368 460.462 346.471 460.614V460.619L346.476 460.616V460.619V460.614C346.581 460.462 350.567 454.631 358.632 449.059C366.805 443.411 368.665 436.368 365.742 431.049C362.819 425.737 351.129 423.144 346.476 433.702C341.822 423.144 330.13 425.737 327.207 431.049C324.282 436.368 326.144 443.411 334.317 449.059Z" fill="#100F0D"/>
<path d="M356.366 476.573C356.366 475.252 356.292 474.255 356.143 473.585C355.995 472.912 355.733 472.365 355.357 471.944C354.982 471.521 354.442 471.191 353.735 470.952C353.028 470.714 352.14 470.532 351.07 470.408C349.998 470.281 348.586 470.196 346.832 470.151V467.655H372.085V470.151C369.555 470.266 367.75 470.416 366.669 470.611C365.586 470.802 364.76 471.095 364.191 471.483C363.62 471.869 363.206 472.416 362.943 473.121C362.681 473.828 362.55 474.981 362.55 476.573V504.285C362.55 505.194 362.711 505.861 363.029 506.284C363.348 506.706 363.815 506.917 364.431 506.917C365.159 506.917 366.195 506.541 367.539 505.79C368.884 505.036 370.546 504 372.528 502.679L374.033 505.309L358.039 514.843H356.16C356.298 512.658 356.366 509.628 356.366 505.754V476.573Z" fill="#100F0D"/>
<path d="M342.187 491.572C342.187 484.148 341.497 478.697 340.117 475.223C338.742 471.749 336.605 470.012 333.712 470.012C330.956 470.012 328.911 471.647 327.578 474.918C326.246 478.186 325.581 483.246 325.581 490.104C325.581 495.343 325.92 499.588 326.604 502.832C327.287 506.079 328.241 508.408 329.459 509.821C330.676 511.233 332.15 511.94 333.882 511.94C335.455 511.94 336.77 511.471 337.828 510.538C338.888 509.604 339.745 508.26 340.393 506.506C341.041 504.753 341.502 502.615 341.776 500.099C342.051 497.581 342.187 494.74 342.187 491.572ZM334.258 467.109C339.179 467.109 342.843 469.045 345.243 472.918C347.648 476.79 348.85 482.666 348.85 490.551C348.85 494.74 348.479 498.361 347.741 501.412C346.999 504.469 345.962 506.991 344.629 508.982C343.296 510.976 341.697 512.453 339.828 513.409C337.961 514.365 335.921 514.843 333.712 514.843C328.723 514.843 325.01 512.919 322.573 509.07C320.135 505.218 318.916 499.397 318.916 491.609C318.916 483.546 320.222 477.444 322.829 473.311C325.439 469.175 329.247 467.109 334.258 467.109Z" fill="#100F0D"/>
<path d="M261.429 309.007C263.098 289.048 274.353 275.068 274.353 275.068H261.429H248.504C248.504 275.068 259.757 289.048 261.429 309.007Z" fill="#100F0D"/>
<path d="M237.3 338.59C253.308 349.651 261.218 361.22 261.424 361.52V361.537L261.429 361.531L261.433 361.537V361.52C261.639 361.22 269.552 349.651 285.558 338.59C301.78 327.379 305.472 313.403 299.667 302.848C293.865 292.302 270.663 287.159 261.429 308.114C252.195 287.159 228.989 292.302 223.187 302.848C217.385 313.403 221.078 327.379 237.3 338.59Z" fill="#100F0D"/>
<path d="M261.427 408.494C259.758 388.536 248.502 374.555 248.502 374.555H261.427H274.352C274.352 374.555 263.099 388.536 261.427 408.494Z" fill="#100F0D"/>
<path d="M285.556 438.077C269.549 449.14 261.639 460.707 261.432 461.009V461.025L261.427 461.018L261.423 461.025V461.009C261.219 460.707 253.307 449.14 237.3 438.077C221.078 426.869 217.384 412.891 223.189 402.339C228.991 391.789 252.193 386.648 261.427 407.602C270.663 386.648 293.867 391.789 299.669 402.339C305.472 412.891 301.779 426.869 285.556 438.077Z" fill="#100F0D"/>
<path d="M261.429 128.623C259.76 148.582 248.504 162.561 248.504 162.561H261.429H274.353C274.353 162.561 263.101 148.582 261.429 128.623Z" fill="#100F0D"/>
<path d="M285.558 99.0411C269.549 87.9788 261.639 76.4091 261.433 76.1075V76.092L261.429 76.0998L261.424 76.092V76.1075C261.218 76.4091 253.307 87.9788 237.3 99.0411C221.077 110.249 217.385 124.227 223.19 134.779C228.992 145.327 252.195 150.469 261.429 129.513C270.663 150.469 293.868 145.327 299.67 134.779C305.472 124.227 301.78 110.249 285.558 99.0411Z" fill="#100F0D"/>
<path d="M261.429 228.111C259.76 248.07 248.504 262.051 248.504 262.051H261.429H274.353C274.353 262.051 263.101 248.07 261.429 228.111Z" fill="#100F0D"/>
<path d="M285.558 198.529C269.549 187.467 261.639 175.897 261.433 175.596V175.58L261.429 175.588L261.424 175.58V175.596C261.218 175.897 253.307 187.467 237.3 198.529C221.077 209.737 217.385 223.715 223.19 234.268C228.992 244.815 252.195 249.957 261.429 229.002C270.663 249.957 293.868 244.815 299.67 234.268C305.472 223.715 301.78 209.737 285.558 198.529Z" fill="#100F0D"/>
<path d="M120.082 309.007C121.752 289.048 133.006 275.068 133.006 275.068H120.082H107.157C107.157 275.068 118.41 289.048 120.082 309.007Z" fill="#100F0D"/>
<path d="M95.9524 338.59C111.961 349.651 119.871 361.22 120.077 361.52V361.537L120.082 361.531L120.086 361.537V361.52C120.292 361.22 128.203 349.651 144.211 338.59C160.431 327.379 164.125 313.403 158.322 302.848C152.52 292.302 129.317 287.159 120.082 308.114C110.847 287.159 87.6418 292.302 81.84 302.848C76.0366 313.403 79.7302 327.379 95.9524 338.59Z" fill="#100F0D"/>
<path d="M120.082 408.494C118.411 388.536 107.157 374.555 107.157 374.555H120.082H133.005C133.005 374.555 121.752 388.536 120.082 408.494Z" fill="#100F0D"/>
<path d="M144.211 438.077C128.2 449.14 120.292 460.707 120.085 461.009V461.025L120.082 461.018L120.077 461.025V461.009C119.87 460.707 111.958 449.14 95.9509 438.077C79.7303 426.869 76.0366 412.891 81.8415 402.339C87.6433 391.789 110.846 386.648 120.082 407.602C129.316 386.648 152.52 391.789 158.322 402.339C164.123 412.891 160.431 426.869 144.211 438.077Z" fill="#100F0D"/>
<path d="M120.082 128.623C118.411 148.582 107.157 162.561 107.157 162.561H120.082H133.005C133.005 162.561 121.752 148.582 120.082 128.623Z" fill="#100F0D"/>
<path d="M144.211 99.0411C128.202 87.9788 120.292 76.4091 120.085 76.1075V76.092L120.082 76.0998L120.077 76.092V76.1075C119.871 76.4091 111.96 87.9788 95.9526 99.0411C79.7304 110.249 76.0368 124.227 81.8417 134.779C87.6435 145.327 110.846 150.469 120.082 129.513C129.316 150.469 152.52 145.327 158.322 134.779C164.125 124.227 160.431 110.249 144.211 99.0411Z" fill="#100F0D"/>
<path d="M120.082 228.111C118.411 248.07 107.157 262.051 107.157 262.051H120.082H133.005C133.005 262.051 121.752 248.07 120.082 228.111Z" fill="#100F0D"/>
<path d="M144.211 198.529C128.202 187.467 120.292 175.897 120.085 175.596V175.58L120.082 175.588L120.077 175.58V175.596C119.871 175.897 111.96 187.467 95.9526 198.529C79.7304 209.737 76.0368 223.715 81.8417 234.268C87.6435 244.815 110.846 249.957 120.082 229.002C129.316 249.957 152.52 244.815 158.322 234.268C164.125 223.715 160.431 209.737 144.211 198.529Z" fill="#100F0D"/>
<path d="M190.754 175.574C189.085 195.535 177.831 209.514 177.831 209.514H190.754H203.68C203.68 209.514 192.426 195.535 190.754 175.574Z" fill="#100F0D"/>
<path d="M214.884 145.992C198.874 134.93 190.966 123.36 190.76 123.059V123.043L190.754 123.051L190.749 123.043V123.059C190.543 123.36 182.632 134.93 166.626 145.992C150.404 157.2 146.712 171.18 152.515 181.731C158.317 192.279 181.52 197.422 190.754 176.465C199.989 197.422 223.195 192.279 228.997 181.731C234.797 171.18 231.105 157.2 214.884 145.992Z" fill="#100F0D"/>
<path d="M190.754 354.317C189.085 334.36 177.831 320.379 177.831 320.379H190.754H203.68C203.68 320.379 192.426 334.36 190.754 354.317Z" fill="#100F0D"/>
<path d="M214.884 383.9C198.874 394.963 190.966 406.532 190.76 406.834V406.849L190.754 406.842L190.749 406.849V406.834C190.543 406.532 182.632 394.963 166.626 383.9C150.404 372.693 146.712 358.715 152.515 348.161C158.317 337.614 181.52 332.473 190.754 353.428C199.989 332.473 223.195 337.614 228.997 348.161C234.797 358.715 231.105 372.693 214.884 383.9Z" fill="#100F0D"/>
</svg>
