<svg width="383" height="536" viewBox="0 0 383 536" fill="none" xmlns="http://www.w3.org/2000/svg">
<rect x="1" y="1" width="381" height="534" rx="14" fill="white"/>
<rect x="1" y="1" width="381" height="534" rx="14" stroke="black" stroke-width="2"/>
<path d="M30.7173 103.906C29.8755 113.959 24.2046 121.005 24.2046 121.005H30.7173H37.2281C37.2281 121.005 31.5595 113.959 30.7173 103.906Z" fill="#100F0D"/>
<path d="M42.874 88.9983C34.8086 83.4239 30.8226 77.5957 30.7199 77.4441V77.4379L30.7176 77.4395L30.7151 77.4379V77.4441C30.6095 77.5957 26.6242 83.4239 18.5587 88.9983C10.3864 94.6455 8.5261 101.691 11.4498 107.006C14.3717 112.322 26.0647 114.912 30.7176 104.354C35.3705 114.912 47.0617 112.322 49.9853 107.006C52.909 101.691 51.0468 94.6455 42.874 88.9983Z" fill="#100F0D"/>
<path d="M23.2165 51.9506H37.4991L31.0069 29.9095L23.2165 51.9506ZM36.3384 70.4001V68.7281C37.476 68.4976 38.3242 68.2486 38.8838 67.9748C39.4414 67.7011 39.8583 67.3206 40.1314 66.8318C40.4046 66.3431 40.541 65.6872 40.541 64.8643C40.541 64.0941 40.4505 63.2557 40.2668 62.354C40.0855 61.4538 39.8246 60.4469 39.4795 59.3301L38.2161 54.9219H22.2951L21.1319 58.2706C20.5405 59.9565 20.1532 61.2326 19.9719 62.0972C19.7883 62.9649 19.6964 63.7492 19.6964 64.4545C19.6964 65.8218 20.045 66.8256 20.7398 67.4613C21.4346 68.1017 22.4993 68.5239 23.9348 68.7281V70.4001H9.34473V68.7281C10.6196 68.5239 11.7301 67.7799 12.675 66.5054C13.6194 65.2309 14.5396 63.4074 15.4265 61.0377L29.6747 23.2137H35.0744L46.6918 61.3115C47.2373 63.0887 47.7219 64.4436 48.1431 65.3778C48.5653 66.3121 49.0699 67.0422 49.6645 67.5634C50.2553 68.0909 51.065 68.4775 52.0902 68.7281V70.4001H36.3384Z" fill="#100F0D"/>
<path d="M354.782 436.265C355.622 426.21 361.294 419.165 361.294 419.165H354.782H348.271C348.271 419.165 353.94 426.21 354.782 436.265Z" fill="#100F0D"/>
<path d="M342.624 451.171C350.69 456.746 354.675 462.574 354.778 462.727V462.733L354.781 462.732L354.783 462.733V462.727C354.888 462.574 358.874 456.746 366.939 451.171C375.112 445.526 376.972 438.48 374.049 433.166C371.126 427.848 359.432 425.259 354.781 435.817C350.127 425.259 338.437 427.848 335.514 433.166C332.589 438.48 334.451 445.526 342.624 451.171Z" fill="#100F0D"/>
<path d="M362.282 488.221H347.999L354.492 510.262L362.282 488.221ZM349.161 469.769V471.443C348.022 471.672 347.175 471.921 346.615 472.195C346.058 472.469 345.64 472.849 345.368 473.339C345.094 473.828 344.957 474.484 344.957 475.305C344.957 476.077 345.049 476.915 345.232 477.816C345.413 478.717 345.674 479.723 346.018 480.841L347.281 485.249H363.203L364.367 481.901C364.957 480.215 365.346 478.939 365.527 478.072C365.709 477.205 365.802 476.422 365.802 475.717C365.802 474.349 365.452 473.344 364.758 472.708C364.063 472.069 362.999 471.647 361.564 471.443V469.769H376.153V471.443C374.878 471.647 373.768 472.39 372.824 473.664C371.879 474.94 370.959 476.762 370.071 479.133L355.824 516.958H350.424L338.805 478.86C338.261 477.081 337.777 475.726 337.354 474.793C336.932 473.857 336.428 473.129 335.834 472.606C335.243 472.08 334.433 471.694 333.409 471.443V469.769H349.161Z" fill="#100F0D"/>
<path d="M286.825 277.641C286.067 280.185 284.038 281.964 281.644 282.569C281.729 281.985 281.789 281.402 281.849 280.822C282.613 280.142 283.223 279.277 283.538 278.221C284.188 276.034 283.472 273.795 281.905 272.346C281.788 271.052 281.596 269.752 281.365 268.455C281.546 268.49 281.732 268.518 281.916 268.571C285.775 269.721 287.974 273.782 286.825 277.641ZM283.698 288.709C285.639 292.236 284.357 296.672 280.827 298.613C279.203 299.509 277.398 299.691 275.727 299.298C276.171 298.608 276.597 297.905 276.993 297.164C277.361 297.052 277.729 296.913 278.083 296.718C280.887 295.173 281.907 291.65 280.363 288.842L280.296 288.746C280.564 287.828 280.798 286.91 281.002 285.996C282.094 286.624 283.042 287.523 283.698 288.709ZM274.122 305.736C273.735 309.74 270.17 312.678 266.161 312.288C264.676 312.144 263.357 311.556 262.291 310.681C263.316 310.231 264.302 309.719 265.268 309.171C268.012 309.293 270.425 307.485 271.112 304.879C271.978 304.062 272.813 303.207 273.587 302.276C274.034 303.332 274.241 304.506 274.122 305.736ZM257.245 315.174C255.43 318.765 251.043 320.206 247.445 318.385C245.578 317.441 244.335 315.796 243.803 313.937C244.547 313.96 245.285 313.969 246.022 313.96C246.441 314.382 246.904 314.766 247.464 315.052C250.141 316.402 253.343 315.469 254.932 313.002C255.976 312.783 257.001 312.517 258.01 312.22C257.969 313.216 257.726 314.221 257.245 315.174ZM238.697 318.438C235.562 320.959 230.971 320.459 228.445 317.316C226.945 315.448 226.561 313.08 227.143 310.93C227.647 311.097 228.156 311.262 228.663 311.412C228.789 312.432 229.149 313.428 229.842 314.288C231.85 316.783 235.495 317.185 237.993 315.177C238.548 314.73 238.971 314.196 239.311 313.623C239.978 313.698 240.641 313.76 241.305 313.81C241.063 315.567 240.196 317.236 238.697 318.438ZM221.408 312.879C217.647 314.314 213.434 312.432 211.994 308.67C211.355 306.99 211.399 305.241 211.962 303.677C212.611 304.101 213.264 304.525 213.931 304.922C213.985 305.354 214.09 305.787 214.252 306.211C215.397 309.202 218.746 310.702 221.739 309.559C221.991 309.462 222.207 309.316 222.436 309.188C223.223 309.514 224.017 309.821 224.812 310.115C224.017 311.326 222.869 312.32 221.408 312.879ZM201.591 298.834C200.817 297.694 200.497 296.395 200.547 295.119C200.782 295.069 201.015 295.001 201.249 294.929C203.493 297.235 205.909 299.359 208.477 301.273C205.957 302.011 203.153 301.122 201.591 298.834ZM195.498 289.138C195.512 288.7 195.483 288.268 195.405 287.848C196.355 289.213 197.345 290.545 198.408 291.818C197.142 291.382 196.069 290.448 195.498 289.138ZM192.931 289.138C192.397 290.364 191.427 291.263 190.272 291.73C191.223 290.588 192.115 289.394 192.98 288.177C192.94 288.494 192.923 288.814 192.931 289.138ZM186.836 298.834C185.304 301.08 182.578 301.969 180.093 301.303C182.66 299.393 185.078 297.272 187.324 294.967C187.509 295.017 187.693 295.08 187.884 295.119C187.93 296.395 187.614 297.694 186.836 298.834ZM176.438 308.67C174.996 312.432 170.78 314.314 167.02 312.879C165.578 312.329 164.452 311.352 163.66 310.166C164.469 309.869 165.275 309.565 166.075 309.231C166.282 309.343 166.467 309.474 166.689 309.559C169.686 310.702 173.032 309.202 174.178 306.211C174.326 305.827 174.419 305.434 174.48 305.041C175.163 304.639 175.828 304.206 176.495 303.774C177.027 305.315 177.059 307.026 176.438 308.67ZM159.982 317.316C157.456 320.459 152.869 320.959 149.729 318.438C148.238 317.24 147.371 315.578 147.127 313.825C147.789 313.779 148.457 313.712 149.128 313.638C149.466 314.206 149.889 314.735 150.435 315.177C152.932 317.185 156.579 316.783 158.588 314.288C159.267 313.445 159.628 312.47 159.759 311.474C160.276 311.321 160.789 311.152 161.306 310.984C161.864 313.118 161.47 315.462 159.982 317.316ZM140.985 318.385C137.387 320.206 133 318.765 131.183 315.174C130.695 314.204 130.452 313.177 130.416 312.161C131.416 312.464 132.431 312.73 133.466 312.953C135.043 315.455 138.273 316.411 140.966 315.052C141.527 314.764 141.99 314.38 142.412 313.955C143.146 313.969 143.884 313.964 144.623 313.944C144.092 315.8 142.847 317.443 140.985 318.385ZM122.27 312.288C118.26 312.678 114.695 309.74 114.308 305.736C114.183 304.447 114.415 303.218 114.908 302.126C115.652 303.032 116.445 303.883 117.278 304.682C117.905 307.448 120.454 309.391 123.343 309.174C124.268 309.699 125.218 310.19 126.198 310.627C125.123 311.533 123.782 312.141 122.27 312.288ZM107.601 298.613C104.072 296.672 102.79 292.236 104.731 288.709C105.417 287.464 106.425 286.525 107.583 285.893C107.779 286.782 108.005 287.67 108.259 288.562L108.065 288.842C106.522 291.65 107.541 295.173 110.346 296.718C110.766 296.95 111.205 297.106 111.646 297.221C112.026 297.929 112.437 298.602 112.86 299.264C111.145 299.708 109.279 299.538 107.601 298.613ZM106.721 272.179C105.022 273.618 104.212 275.947 104.89 278.221C105.232 279.365 105.917 280.284 106.775 280.982C106.836 281.526 106.894 282.069 106.972 282.613C104.495 282.057 102.38 280.252 101.604 277.641C100.456 273.782 102.655 269.721 106.511 268.571C106.759 268.499 107.005 268.456 107.251 268.416C107.026 269.672 106.843 270.928 106.721 272.179ZM105.108 259.83C103.96 255.971 106.16 251.909 110.016 250.761C111.226 250.402 112.441 250.406 113.585 250.665C113.145 251.51 112.724 252.353 112.325 253.19L112.3 253.196C109.23 254.11 107.48 257.34 108.396 260.408C108.526 260.852 108.718 261.262 108.94 261.643C108.702 262.399 108.477 263.152 108.271 263.907C106.803 263.012 105.637 261.613 105.108 259.83ZM118.743 234.366C120.476 233.849 122.228 234.035 123.748 234.722C123.283 235.348 122.821 235.973 122.376 236.593C121.926 236.613 121.474 236.666 121.023 236.8C117.954 237.711 116.205 240.943 117.12 244.011L117.225 244.267C116.743 245.043 116.285 245.813 115.834 246.585C114.93 245.75 114.209 244.703 113.834 243.433C112.684 239.574 114.885 235.512 118.743 234.366ZM131.367 219.853C132.689 219.853 133.903 220.238 134.965 220.86C134.385 221.533 133.808 222.198 133.24 222.861L132.858 222.838C129.656 222.838 127.056 225.433 127.056 228.637C127.056 229.15 127.152 229.633 127.28 230.105C126.81 230.703 126.346 231.297 125.89 231.891C124.768 230.624 124.076 228.974 124.076 227.144C124.076 223.116 127.34 219.853 131.367 219.853ZM143.049 205.685C144.692 205.685 146.179 206.26 147.389 207.177C146.879 207.728 146.362 208.286 145.844 208.843C145.426 208.741 144.994 208.671 144.541 208.671C141.339 208.671 138.743 211.267 138.743 214.472C138.743 215.093 138.853 215.686 139.041 216.246C138.567 216.769 138.111 217.287 137.65 217.808C136.484 216.527 135.759 214.851 135.759 212.979C135.759 208.951 139.023 205.685 143.049 205.685ZM154.808 192.093C156.588 192.093 158.194 192.754 159.445 193.82C158.997 194.335 158.542 194.85 158.079 195.371C157.521 195.187 156.924 195.077 156.301 195.077C153.097 195.077 150.501 197.674 150.501 200.879C150.501 201.72 150.693 202.511 151.021 203.227C150.604 203.685 150.177 204.149 149.755 204.61C148.376 203.293 147.517 201.445 147.517 199.383C147.517 195.357 150.782 192.093 154.808 192.093ZM166.492 178.149C168.33 178.149 169.989 178.844 171.258 179.972C170.837 180.483 170.418 180.992 169.982 181.518C169.361 181.279 168.693 181.132 167.985 181.132C164.783 181.132 162.186 183.73 162.186 186.932C162.186 187.979 162.48 188.944 162.97 189.784C162.619 190.191 162.249 190.613 161.889 191.026C160.257 189.702 159.202 187.71 159.202 185.441C159.202 181.416 162.466 178.149 166.492 178.149ZM176.908 163.997C178.979 163.997 180.824 164.875 182.137 166.269C181.794 166.721 181.444 167.18 181.084 167.65C180.281 167.226 179.372 166.979 178.399 166.979C175.197 166.979 172.6 169.577 172.6 172.778C172.6 174.239 173.151 175.559 174.045 176.567C173.79 176.883 173.524 177.209 173.264 177.531C171.089 176.281 169.617 173.975 169.617 171.287C169.617 167.26 172.882 163.997 176.908 163.997ZM188.595 149.829C190.185 149.829 191.624 150.375 192.816 151.245C192.482 151.764 192.089 152.362 191.633 153.047C191.138 152.907 190.626 152.815 190.086 152.815C186.883 152.815 184.284 155.411 184.284 158.613C184.284 159.862 184.705 160.993 185.382 161.932C185.093 162.322 184.809 162.711 184.507 163.117C182.578 161.817 181.301 159.627 181.301 157.12C181.301 153.095 184.567 149.829 188.595 149.829ZM194.34 140.707C198.005 140.616 200.502 142.946 202.223 145.823L201.849 145.802C201.073 145.802 200.318 145.9 199.594 146.081C198.457 144.331 195.605 143.196 193.9 143.309C192.183 143.424 190.241 144.622 189.344 146.24C188.468 145.965 187.543 145.802 186.578 145.802C186.434 145.802 186.292 145.815 186.151 145.826C187.625 142.686 190.569 140.797 194.34 140.707ZM207.13 157.12C207.13 159.576 205.909 161.731 204.048 163.039C203.734 162.62 203.436 162.215 203.142 161.813C203.767 160.899 204.143 159.808 204.143 158.613C204.143 155.411 201.547 152.815 198.346 152.815C197.86 152.815 197.399 152.894 196.954 153.006C196.48 152.297 196.081 151.685 195.739 151.159C196.906 150.342 198.299 149.829 199.837 149.829C203.864 149.829 207.13 153.095 207.13 157.12ZM211.521 163.997C215.547 163.997 218.812 167.26 218.812 171.287C218.812 173.924 217.391 176.188 215.287 177.453C215.016 177.122 214.741 176.784 214.477 176.457C215.316 175.463 215.832 174.187 215.832 172.778C215.832 169.577 213.231 166.979 210.03 166.979C209.109 166.979 208.251 167.208 207.482 167.591C207.111 167.106 206.749 166.634 206.395 166.168C207.702 164.834 209.502 163.997 211.521 163.997ZM221.938 178.149C225.964 178.149 229.229 181.416 229.229 185.441C229.229 187.662 228.212 189.614 226.64 190.936C226.269 190.508 225.892 190.073 225.525 189.651C225.972 188.844 226.243 187.926 226.243 186.932C226.243 183.73 223.647 181.132 220.444 181.132C219.787 181.132 219.165 181.258 218.583 181.464C218.135 180.924 217.706 180.403 217.272 179.877C218.531 178.807 220.15 178.149 221.938 178.149ZM233.622 192.093C237.647 192.093 240.912 195.357 240.912 199.383C240.912 201.397 240.089 203.204 238.77 204.517C238.332 204.039 237.89 203.558 237.461 203.089C237.755 202.407 237.93 201.666 237.93 200.879C237.93 197.674 235.333 195.077 232.128 195.077C231.557 195.077 231.007 195.17 230.488 195.325C230.014 194.791 229.546 194.26 229.086 193.734C230.326 192.718 231.888 192.093 233.622 192.093ZM245.379 205.685C249.407 205.685 252.672 208.951 252.672 212.979C252.672 214.8 251.983 216.442 250.871 217.706C250.393 217.169 249.922 216.636 249.431 216.093C249.591 215.579 249.687 215.038 249.687 214.472C249.687 211.267 247.09 208.671 243.888 208.671C243.486 208.671 243.104 208.722 242.726 208.803C242.197 208.231 241.67 207.66 241.147 207.098C242.336 206.226 243.783 205.685 245.379 205.685ZM257.064 219.853C261.092 219.853 264.356 223.116 264.356 227.144C264.356 228.921 263.7 230.53 262.639 231.78C262.164 231.17 261.686 230.558 261.199 229.939C261.303 229.52 261.371 229.088 261.371 228.637C261.371 225.433 258.775 222.838 255.573 222.838L255.362 222.849C254.777 222.167 254.181 221.478 253.581 220.789C254.614 220.205 255.792 219.853 257.064 219.853ZM269.687 234.366C273.545 235.512 275.743 239.574 274.598 243.433C274.233 244.647 273.562 245.665 272.711 246.48C272.25 245.691 271.772 244.895 271.276 244.096L271.31 244.011C272.224 240.943 270.478 237.711 267.408 236.8C267.016 236.684 266.623 236.623 266.237 236.593C265.774 235.953 265.298 235.309 264.817 234.661C266.306 234.024 268.006 233.866 269.687 234.366ZM273.853 248.486L274.123 248.381L273.885 248.543L273.853 248.486ZM263.712 233.176L263.909 233.071L263.754 233.231L263.712 233.176ZM252.038 219.014L252.11 218.979L252.059 219.039L252.038 219.014ZM271.381 272.108C269.51 272.108 267.994 270.592 267.994 268.721C267.994 266.852 269.51 265.336 271.381 265.336C273.248 265.336 274.767 266.852 274.767 268.721C274.767 270.592 273.248 272.108 271.381 272.108ZM264.781 252.201C264.781 250.713 265.989 249.505 267.48 249.505C268.97 249.505 270.176 250.713 270.176 252.201C270.176 253.692 268.97 254.899 267.48 254.899C265.989 254.899 264.781 253.692 264.781 252.201ZM268.252 282.841C270.261 282.841 271.895 284.473 271.895 286.485C271.895 288.499 270.261 290.129 268.252 290.129C266.241 290.129 264.608 288.499 264.608 286.485C264.608 284.473 266.241 282.841 268.252 282.841ZM239.667 303.607C239.667 302.118 240.873 300.911 242.364 300.911C243.854 300.911 245.062 302.118 245.062 303.607C245.062 305.098 243.854 306.305 242.364 306.305C240.873 306.305 239.667 305.098 239.667 303.607ZM187.294 285.278C187.294 284.535 187.899 283.931 188.643 283.931C189.387 283.931 189.99 284.535 189.99 285.278C189.99 286.024 189.387 286.629 188.643 286.629C187.899 286.629 187.294 286.024 187.294 285.278ZM143.556 303.607C143.556 302.118 144.762 300.911 146.25 300.911C147.743 300.911 148.949 302.118 148.949 303.607C148.949 305.098 147.743 306.305 146.25 306.305C144.762 306.305 143.556 305.098 143.556 303.607ZM117.235 265.336C119.107 265.336 120.621 266.852 120.621 268.721C120.621 270.592 119.107 272.108 117.235 272.108C115.368 272.108 113.853 270.592 113.853 268.721C113.853 266.852 115.368 265.336 117.235 265.336ZM121.138 254.899C119.648 254.899 118.44 253.692 118.44 252.201C118.44 250.713 119.648 249.505 121.138 249.505C122.628 249.505 123.836 250.713 123.836 252.201C123.836 253.692 122.628 254.899 121.138 254.899ZM124.007 286.485C124.007 288.499 122.376 290.129 120.362 290.129C118.354 290.129 116.721 288.499 116.721 286.485C116.721 284.473 118.354 282.841 120.362 282.841C122.376 282.841 124.007 284.473 124.007 286.485ZM194.598 149.351C194.456 149.116 194.367 148.965 194.335 148.918V148.874H194.312L194.326 148.893L194.312 148.914V148.874H194.298V148.914L194.287 148.893L194.298 148.874H194.275V148.918C194.241 148.972 194.126 149.165 193.945 149.456C193.025 148.259 191.825 147.295 190.442 146.661C191.678 145.751 193.413 145.428 194.844 145.821C195.664 146.042 196.304 146.622 196.932 147.229C196.035 147.793 195.261 148.523 194.598 149.351ZM233.514 210.605C232.023 210.605 230.818 209.397 230.818 207.907C230.818 206.419 232.023 205.211 233.514 205.211C235.002 205.211 236.208 206.419 236.208 207.907C236.208 209.397 235.002 210.605 233.514 210.605ZM257.856 295.608C259.7 295.608 261.196 297.105 261.196 298.945C261.196 300.794 259.7 302.291 257.856 302.291C256.01 302.291 254.512 300.794 254.512 298.945C254.512 297.105 256.01 295.608 257.856 295.608ZM174.227 289.589C175.21 288.958 176.159 288.319 177.069 287.715C184.408 282.811 189.873 276.55 192.487 268.065C193.025 266.317 193.246 264.527 193.218 262.752C193.84 258.149 193.297 253.405 191.059 249.419C188.165 244.265 184.063 240.028 181.226 234.869C179.726 232.14 178.79 229.243 178.011 226.252C177.609 224.728 177.383 223.183 177.338 221.614C177.395 220.382 177.454 219.149 177.51 217.915C179.322 211.681 189.02 210.006 188.675 217.007C185.698 217.007 181.559 221.138 186.14 224.216C189.769 226.654 192.805 224.586 194.214 221.293C195.623 224.586 198.658 226.654 202.287 224.216C206.87 221.138 202.731 217.007 199.752 217.007C199.408 210.006 209.106 211.681 210.919 217.915C210.975 219.149 211.034 220.382 211.089 221.614C211.044 223.183 210.82 224.728 210.418 226.252C209.638 229.243 208.703 232.14 207.201 234.869C204.364 240.028 200.265 244.265 197.37 249.419C195.132 253.405 194.589 258.149 195.21 262.752C195.183 264.527 195.404 266.317 195.94 268.065C198.556 276.55 204.019 282.811 211.358 287.715C212.26 288.315 213.205 288.949 214.184 289.578C206.277 286.081 199.056 280.474 194.219 273.102C189.379 280.484 182.142 286.095 174.227 289.589ZM130.762 295.608C132.608 295.608 134.104 297.105 134.104 298.945C134.104 300.794 132.608 302.291 130.762 302.291C128.916 302.291 127.419 300.794 127.419 298.945C127.419 297.105 128.916 295.608 130.762 295.608ZM155.102 210.605C153.616 210.605 152.408 209.397 152.408 207.907C152.408 206.419 153.616 205.211 155.102 205.211C156.593 205.211 157.801 206.419 157.801 207.907C157.801 209.397 156.593 210.605 155.102 210.605ZM184.586 246.652C182.224 244.123 179.46 241.979 176.088 239.807C171.827 237.06 168.062 234.004 165.853 229.341C164.116 225.672 163.078 223.525 162.732 219.44C162.07 211.571 173.765 208.552 170.228 218.278L170.175 218.26C168.136 222.222 171.576 225.025 174.413 222.222C174.35 223.975 174.492 225.823 174.869 227.726C176.17 234.278 182.205 239.778 186.165 244.761C188.437 247.621 190.024 250.771 190.975 254.057C189.45 251.109 187.245 248.519 184.586 246.652ZM160.082 258.766C160.427 260.565 161.162 262.223 162.188 263.655C157.902 262.036 152.131 265.234 155.226 269.819C155.575 270.338 156.302 270.688 156.93 270.489C157.192 270.4 157.455 270.318 157.714 270.236C159.238 269.746 160.615 266.357 158.138 266.447C163.799 264.906 165.126 266.985 162.129 272.683C159.662 276.208 153.874 274.278 151.384 272.518C145.885 268.628 146.741 258.962 149.218 253.829C153.375 245.213 166.271 240.223 175.519 243.546C173.282 243.498 170.961 243.936 168.627 244.99C163.462 247.321 158.912 252.648 160.082 258.766ZM162.149 276.818C162.466 276.649 162.778 276.467 163.08 276.229C166.214 273.769 167.091 270.256 165.488 266.803C168.076 268.453 171.327 269.095 174.755 268.13C179.446 266.812 182.915 262.529 180.591 257.768C178.718 253.921 174.558 256.917 173.731 259.397C173.669 259.581 173.93 259.587 174 259.454C175.03 263.463 174.077 265.163 171.148 264.551C167.697 264.394 165.185 262.631 163.62 259.268C160.588 250.115 170.108 247.202 176.404 247.096C185.529 246.936 191.685 257.805 190.046 265.837C188.515 273.319 183.318 280.066 177.381 284.595C174.377 286.889 170.965 289.532 167.338 291.374C168.121 290.239 168.709 288.864 169.05 287.243C170.113 282.248 166.642 278.027 162.149 276.818ZM201.462 194.664C201.461 199.58 199.453 203.889 196.06 208.444C195.144 209.674 194.558 210.965 194.214 212.294C193.873 210.965 193.286 209.674 192.369 208.444C188.976 203.889 186.968 199.58 186.965 194.664C187.123 194.061 187.321 193.453 187.594 192.837C189.614 188.273 193.535 185.23 194.214 180.825C194.89 185.23 198.814 188.273 200.833 192.837C201.108 193.453 201.306 194.061 201.462 194.664ZM230.716 270.236C230.974 270.318 231.236 270.4 231.497 270.489C232.125 270.688 232.853 270.338 233.201 269.819C236.296 265.234 230.526 262.036 226.24 263.655C227.267 262.223 228.001 260.565 228.346 258.766C229.516 252.648 224.967 247.321 219.802 244.99C217.466 243.936 215.145 243.498 212.91 243.546C222.158 240.223 235.053 245.213 239.21 253.829C241.687 258.962 242.544 268.628 237.045 272.518C234.555 274.278 228.767 276.208 226.301 272.683C223.301 266.985 224.629 264.906 230.29 266.447C227.813 266.357 229.189 269.746 230.716 270.236ZM214.014 222.222C216.851 225.025 220.292 222.222 218.252 218.26L218.201 218.278C214.662 208.552 226.357 211.571 225.695 219.44C225.35 223.525 224.312 225.672 222.575 229.341C220.365 234.004 216.602 237.06 212.339 239.807C208.967 241.979 206.205 244.123 203.843 246.652C201.182 248.519 198.978 251.109 197.452 254.057C198.403 250.771 199.991 247.621 202.264 244.761C206.223 239.778 212.259 234.278 213.559 227.726C213.935 225.823 214.079 223.975 214.014 222.222ZM219.378 287.243C219.718 288.864 220.308 290.239 221.09 291.374C217.463 289.532 214.051 286.889 211.047 284.595C205.111 280.066 199.916 273.319 198.381 265.837C196.742 257.805 202.898 246.936 212.025 247.096C218.32 247.202 227.84 250.115 224.809 259.268C223.243 262.631 220.732 264.394 217.281 264.551C214.351 265.163 213.399 263.463 214.429 259.454C214.497 259.587 214.76 259.581 214.696 259.397C213.87 256.917 209.711 253.921 207.836 257.768C205.513 262.529 208.983 266.812 213.674 268.13C217.101 269.095 220.353 268.453 222.94 266.803C221.338 270.256 222.215 273.769 225.347 276.229C225.65 276.467 225.963 276.649 226.278 276.818C221.785 278.027 218.316 282.248 219.378 287.243ZM239.18 283.976C238.794 283.538 238.32 283.214 237.806 282.98L237.637 282.828C236.298 281.907 234.207 281.563 232.705 282.221C231.034 282.951 230.475 285.093 231.24 286.654C231.605 287.398 232.43 288.293 233.274 288.462C233.506 288.508 233.862 288.514 234.097 288.426C234.171 288.398 234.92 288.033 234.42 288.239C234.64 288.151 234.761 287.947 234.768 287.715L234.884 287.568L234.753 287.306L234.72 287.285C234.689 286.507 234.142 285.852 235.013 285.166C235.392 284.872 235.75 284.714 236.1 284.63C238.067 286.016 239.667 288.814 236.699 290.619C235.276 291.486 234.043 291.793 232.448 292.158C229.455 292.841 226.51 292.991 223.978 290.955C220.51 288.168 221.072 282.154 224.393 279.528C225.949 278.298 227.658 277.905 229.474 277.488C231.908 277.382 234.428 276.176 236.439 275.112C246.667 269.711 244.643 255.281 237.687 248.144C237.361 247.809 237.009 247.487 236.657 247.171C236.968 247.227 237.257 247.272 237.498 247.29C240.695 247.563 244.803 246.803 246.652 243.789C250.214 237.976 245.775 229.975 238.828 229.982C235.257 229.984 229.919 233.323 230.303 236.876C229.882 239.366 232.396 242.098 234.966 242.285C238.527 242.544 241.835 239.11 239.068 235.888C237.984 234.62 235.733 233.924 234.771 235.698C234.174 236.79 234.677 238.015 235.608 238.641C235.429 238.718 235.243 238.774 235.025 238.788C234.049 238.845 232.776 238.596 232.147 237.762C231.627 237.077 231.803 236.531 231.871 235.685L231.812 235.455C232.088 234.884 232.572 234.357 233.311 233.876C234.53 233.416 235.845 233.067 237.164 233.133C239.927 233.274 243.755 234.301 244.437 237.41C245.218 240.967 243.546 244.056 240.013 245.311C238.378 245.892 236.601 246.149 234.911 245.75C228.301 240.901 218.613 239.096 211.513 243.643C210.693 243.738 209.897 243.915 209.109 244.135C210.992 242.686 212.972 241.292 215.078 239.875C219.095 237.178 224.827 233.894 226.693 229.152C229.262 222.609 228.512 213.386 220.64 211.268C217.367 210.39 213.955 213.168 212.828 216.394C211.546 213.301 209.109 210.52 205.775 209.395C207.988 208.506 210.003 207.293 211.194 205.023C214.636 198.466 209.388 194.805 207.024 189.161L206.936 189.179C208.164 194.106 212.651 200.678 206.212 204.61C204.762 205.494 203.213 206.07 201.693 206.687C202.299 206.238 202.909 205.762 203.306 205.234C205.255 202.633 205.781 199.801 205.727 196.602C205.623 189.874 198.703 185.882 196.041 180.092C195.193 178.765 194.471 177.344 193.982 175.9C193.572 178.17 192.627 180.091 191.413 181.849C188.341 186.742 182.795 190.578 182.702 196.602C182.648 199.801 183.174 202.633 185.123 205.234C185.52 205.762 186.13 206.238 186.736 206.687C185.215 206.07 183.667 205.494 182.216 204.61C175.777 200.678 180.263 194.106 181.492 189.179L181.403 189.161C179.041 194.805 173.791 198.466 177.233 205.023C178.425 207.293 180.441 208.506 182.656 209.395C179.319 210.52 176.883 213.301 175.601 216.394C174.473 213.168 171.061 210.39 167.788 211.268C159.919 213.386 159.167 222.609 161.736 229.152C163.6 233.894 169.333 237.178 173.349 239.875C175.457 241.292 177.437 242.686 179.319 244.135C178.532 243.915 177.735 243.738 176.916 243.643C169.816 239.096 160.127 240.901 153.516 245.75C151.827 246.149 150.051 245.892 148.415 245.311C144.883 244.056 143.211 240.967 143.991 237.41C144.674 234.301 148.502 233.274 151.266 233.133C152.582 233.067 153.898 233.416 155.116 233.876C155.855 234.357 156.341 234.884 156.616 235.455L156.557 235.685C156.626 236.531 156.802 237.077 156.282 237.762C155.653 238.596 154.379 238.845 153.403 238.788C153.185 238.774 153.002 238.718 152.819 238.641C153.75 238.015 154.254 236.79 153.658 235.698C152.695 233.924 150.445 234.62 149.359 235.888C146.593 239.11 149.901 242.544 153.461 242.285C156.033 242.098 158.545 239.366 158.124 236.876C158.509 233.323 153.171 229.984 149.599 229.982C142.652 229.975 138.215 237.976 141.776 243.789C143.625 246.803 147.734 247.563 150.93 247.29C151.172 247.272 151.462 247.227 151.77 247.171C151.418 247.487 151.067 247.809 150.741 248.144C143.785 255.281 141.762 269.711 151.989 275.112C154 276.176 156.52 277.382 158.953 277.488C160.769 277.905 162.48 278.298 164.036 279.528C167.357 282.154 167.918 288.168 164.449 290.955C161.918 292.991 158.973 292.841 155.979 292.158C154.384 291.793 153.153 291.486 151.731 290.619C148.762 288.814 150.361 286.016 152.329 284.63C152.677 284.714 153.039 284.872 153.416 285.166C154.286 285.852 153.738 286.507 153.709 287.285L153.675 287.306L153.543 287.568L153.66 287.715C153.667 287.947 153.788 288.151 154.007 288.239C153.509 288.033 154.256 288.398 154.33 288.426C154.565 288.514 154.921 288.508 155.155 288.462C155.998 288.293 156.822 287.398 157.187 286.654C157.954 285.093 157.394 282.951 155.724 282.221C154.221 281.563 152.129 281.907 150.792 282.828L150.624 282.98C150.109 283.214 149.633 283.538 149.248 283.976C147.933 285.48 147.56 289.07 148.49 290.844C149.057 291.928 149.813 292.751 150.695 293.396C141.877 292.236 134.339 287.781 130.691 279.44C121.923 259.391 132.99 241.305 156.763 216.345C184.298 187.433 193.845 171.58 194.196 171.02V170.993H194.213H194.225H194.245V171.02C194.59 171.58 204.138 187.433 231.673 216.345C255.447 241.305 266.509 259.391 257.747 279.44C254.095 287.786 246.551 292.239 237.732 293.397C238.613 292.754 239.37 291.928 239.937 290.844C240.869 289.07 240.496 285.48 239.18 283.976ZM217.273 192.873C217.273 191.385 218.481 190.177 219.971 190.177C221.457 190.177 222.667 191.385 222.667 192.873C222.667 194.362 221.457 195.57 219.971 195.57C218.481 195.57 217.273 194.362 217.273 192.873ZM205.11 178.595C205.11 177.107 206.316 175.9 207.807 175.9C209.293 175.9 210.501 177.107 210.501 178.595C210.501 180.086 209.293 181.291 207.807 181.291C206.316 181.291 205.11 180.086 205.11 178.595ZM194.316 159.251C195.864 159.256 197.219 160.4 197.22 161.947C197.22 163.495 195.864 164.642 194.316 164.646C192.763 164.651 191.395 163.5 191.396 161.947C191.397 160.395 192.764 159.247 194.316 159.251ZM194.301 152.579V152.616L194.289 152.597L194.301 152.579ZM194.329 152.597L194.316 152.616V152.579L194.329 152.597ZM178.116 178.595C178.116 177.107 179.322 175.9 180.809 175.9C182.3 175.9 183.508 177.107 183.508 178.595C183.508 180.086 182.3 181.291 180.809 181.291C179.322 181.291 178.116 180.086 178.116 178.595ZM165.949 192.873C165.949 191.385 167.157 190.177 168.645 190.177C170.135 190.177 171.343 191.385 171.343 192.873C171.343 194.362 170.135 195.57 168.645 195.57C167.157 195.57 165.949 194.362 165.949 192.873ZM140.096 221.771C140.096 220.283 141.303 219.073 142.791 219.073C144.281 219.073 145.488 220.283 145.488 221.771C145.488 223.26 144.281 224.47 142.791 224.47C141.303 224.47 140.096 223.26 140.096 221.771ZM127.419 237.145C127.419 235.657 128.627 234.449 130.115 234.449C131.604 234.449 132.813 235.657 132.813 237.145C132.813 238.636 131.604 239.844 130.115 239.844C128.627 239.844 127.419 238.636 127.419 237.145ZM166.806 300.217C166.806 301.705 165.598 302.913 164.109 302.913C162.621 302.913 161.413 301.705 161.413 300.217C161.413 298.727 162.621 297.519 164.109 297.519C165.598 297.519 166.806 298.727 166.806 300.217ZM180.523 293.6C180.523 294.681 179.649 295.552 178.571 295.552C177.496 295.552 176.622 294.681 176.622 293.6C176.622 292.523 177.496 291.651 178.571 291.651C179.649 291.651 180.523 292.523 180.523 293.6ZM211.994 293.6C211.994 294.681 211.122 295.552 210.044 295.552C208.966 295.552 208.096 294.681 208.096 293.6C208.096 292.523 208.966 291.651 210.044 291.651C211.122 291.651 211.994 292.523 211.994 293.6ZM227.203 300.217C227.203 301.705 225.997 302.913 224.509 302.913C223.019 302.913 221.811 301.705 221.811 300.217C221.811 298.727 223.019 297.519 224.509 297.519C225.997 297.519 227.203 298.727 227.203 300.217ZM255.804 237.145C255.804 235.657 257.01 234.449 258.5 234.449C259.988 234.449 261.196 235.657 261.196 237.145C261.196 238.636 259.988 239.844 258.5 239.844C257.01 239.844 255.804 238.636 255.804 237.145ZM243.128 221.771C243.128 220.283 244.336 219.073 245.826 219.073C247.314 219.073 248.522 220.283 248.522 221.771C248.522 223.26 247.314 224.47 245.826 224.47C244.336 224.47 243.128 223.26 243.128 221.771ZM227.56 191.988C227.813 191.883 228.063 191.775 228.306 191.649C228.14 191.861 227.994 192.093 227.85 192.325L227.56 191.988ZM215.932 178.248L216.275 178.168L216.101 178.459L215.932 178.248ZM204.701 163.916C205.354 163.711 205.987 163.463 206.568 163.12C206.106 163.639 205.727 164.229 205.391 164.84C205.156 164.526 204.929 164.224 204.701 163.916ZM183.109 164.987C182.759 164.32 182.359 163.68 181.861 163.12C182.485 163.489 183.171 163.749 183.879 163.961C183.622 164.301 183.372 164.634 183.109 164.987ZM172.156 178.168C172.314 178.216 172.484 178.245 172.647 178.284L172.402 178.584C172.322 178.443 172.246 178.301 172.156 178.168ZM160.123 191.649C160.404 191.799 160.701 191.928 160.998 192.052L160.656 192.443C160.492 192.168 160.318 191.898 160.123 191.649ZM136.319 218.979L136.516 219.078L136.454 219.149L136.319 218.979ZM124.519 233.071L124.85 233.244L124.779 233.334L124.519 233.071ZM114.307 248.381L114.724 248.545L114.673 248.631L114.307 248.381ZM198.624 285.278C198.624 284.535 199.232 283.931 199.976 283.931C200.718 283.931 201.322 284.535 201.322 285.278C201.322 286.024 200.718 286.629 199.976 286.629C199.232 286.629 198.624 286.024 198.624 285.278ZM278.413 250.761C282.27 251.909 284.47 255.971 283.32 259.83C282.81 261.551 281.706 262.913 280.312 263.807C280.089 263.016 279.854 262.221 279.596 261.428C279.766 261.106 279.927 260.773 280.032 260.408C280.926 257.409 279.269 254.271 276.328 253.278C275.908 252.396 275.466 251.51 275 250.621C276.097 250.396 277.259 250.419 278.413 250.761ZM284.994 265.285C284.188 265.046 283.379 264.931 282.578 264.911C284.994 263.85 286.943 261.776 287.755 259.049C289.22 254.122 286.417 248.941 281.489 247.474C279.187 246.791 276.832 247.051 274.824 248.01C276.782 246.859 278.331 245 279.03 242.652C280.496 237.725 277.692 232.544 272.767 231.077C270.134 230.296 267.442 230.74 265.271 232.063C267.174 230.36 268.384 227.887 268.384 225.132C268.384 219.992 264.217 215.825 259.077 215.825C257.352 215.825 255.744 216.303 254.359 217.118C255.812 215.479 256.699 213.329 256.699 210.965C256.699 205.825 252.534 201.66 247.393 201.66C245.933 201.66 244.558 202.005 243.329 202.602C244.344 201.111 244.941 199.31 244.941 197.371C244.941 192.231 240.774 188.066 235.634 188.066C234.06 188.066 232.577 188.459 231.277 189.151C232.512 187.572 233.254 185.588 233.254 183.427C233.254 178.287 229.087 174.12 223.949 174.12C222.994 174.12 222.074 174.267 221.21 174.533C222.237 173.038 222.841 171.226 222.841 169.274C222.841 164.133 218.676 159.967 213.536 159.967C211.81 159.967 210.203 160.444 208.819 161.262C210.268 159.621 211.156 157.471 211.156 155.108C211.156 150.568 207.908 146.795 203.608 145.973C201.987 141.666 198.539 137.387 193.659 137.964C188.895 138.528 185.794 141.614 185.172 145.918C180.702 146.601 177.271 150.449 177.271 155.108C177.271 157.471 178.161 159.621 179.608 161.262C178.227 160.444 176.619 159.967 174.896 159.967C169.756 159.967 165.59 164.133 165.59 169.274C165.59 171.226 166.194 173.038 167.219 174.533C166.354 174.267 165.434 174.12 164.48 174.12C159.34 174.12 155.173 178.287 155.173 183.427C155.173 185.588 155.917 187.572 157.154 189.151C155.851 188.459 154.368 188.066 152.797 188.066C147.656 188.066 143.489 192.231 143.489 197.371C143.489 199.31 144.085 201.111 145.101 202.602C143.873 202.005 142.495 201.66 141.037 201.66C135.898 201.66 131.732 205.825 131.732 210.965C131.732 213.329 132.619 215.479 134.069 217.118C132.684 216.303 131.076 215.825 129.352 215.825C124.213 215.825 120.045 219.992 120.045 225.132C120.045 227.887 121.253 230.36 123.159 232.063C120.99 230.74 118.294 230.296 115.666 231.077C110.737 232.544 107.935 237.725 109.398 242.652C110.098 245 111.646 246.859 113.606 248.01C111.598 247.051 109.241 246.791 106.94 247.474C102.011 248.941 99.2078 254.122 100.674 259.049C101.486 261.776 103.437 263.85 105.852 264.911C105.051 264.931 104.239 265.046 103.434 265.285C98.5076 266.752 95.7017 271.933 97.1687 276.858C98.4743 281.243 102.719 283.931 107.109 283.441L107.171 283.815C104.343 284.188 101.716 285.838 100.232 288.528C97.7529 293.031 99.3928 298.69 103.893 301.17C106.682 302.709 109.909 302.659 112.554 301.335C111.051 303.17 110.248 305.578 110.492 308.125C110.988 313.242 115.534 316.988 120.651 316.492C123.965 316.173 126.694 314.147 128.079 311.374C127.218 313.712 127.282 316.385 128.497 318.787C130.818 323.373 136.417 325.209 141.003 322.891C143.216 321.771 144.78 319.885 145.555 317.721C146.015 319.67 147.093 321.488 148.776 322.838C152.782 326.058 158.639 325.42 161.857 321.415C163.399 319.499 164.047 317.162 163.877 314.892C164.832 315.955 166.039 316.817 167.462 317.361C172.265 319.197 177.646 316.79 179.477 311.992C180.349 309.705 180.257 307.292 179.407 305.191C182.748 306.413 186.615 305.276 188.714 302.203C190.165 300.076 190.436 297.501 189.69 295.233C191.464 295.086 193.121 294.208 194.214 292.782C195.308 294.208 196.964 295.086 198.737 295.233C197.993 297.501 198.267 300.076 199.718 302.203C201.812 305.276 205.68 306.413 209.021 305.191C208.175 307.292 208.079 309.705 208.952 311.992C210.788 316.79 216.163 319.197 220.967 317.361C222.391 316.817 223.598 315.955 224.554 314.892C224.385 317.162 225.033 319.499 226.571 321.415C229.791 325.42 235.647 326.058 239.653 322.838C241.334 321.488 242.417 319.67 242.873 317.721C243.647 319.885 245.213 321.771 247.428 322.891C252.014 325.209 257.614 323.373 259.931 318.787C261.135 316.408 261.207 313.763 260.371 311.435L260.384 311.431C261.776 314.173 264.489 316.175 267.779 316.492C272.894 316.988 277.444 313.242 277.939 308.125C278.184 305.578 277.378 303.17 275.873 301.335C278.519 302.659 281.749 302.709 284.535 301.17C289.039 298.69 290.675 293.031 288.196 288.528C286.746 285.893 284.194 284.262 281.433 283.845L281.495 283.464C285.821 283.862 289.973 281.186 291.26 276.858C292.726 271.933 289.92 266.752 284.994 265.285Z" fill="#100F0D"/>
<path d="M194.215 299.739C195.356 299.739 196.402 300.314 197.013 301.275C206.214 315.885 222.169 324.261 240.788 324.262L240.793 325.639L240.796 324.262C262.506 324.262 282.004 312.578 289.31 295.194C302.461 263.888 284.722 235.563 249.636 197.219C217.085 161.646 200.637 138.208 194.215 128.301C187.788 138.214 171.326 161.666 138.792 197.219C103.706 235.563 85.9665 263.888 99.1211 295.194C106.423 312.578 125.924 324.262 147.643 324.262C166.257 324.262 182.213 315.885 191.415 301.279C192.021 300.317 193.068 299.739 194.215 299.739ZM240.796 327.016H240.788C221.202 327.014 204.4 318.17 194.685 302.747C194.485 302.436 193.941 302.435 193.746 302.746C184.028 318.171 167.224 327.016 147.643 327.016C124.828 327.016 104.307 314.657 96.5829 296.262C82.8537 263.598 100.919 234.53 136.762 195.361C171.338 157.571 187.646 133.574 193.051 125.009L194.215 123.166L195.379 125.011C200.779 133.567 217.071 157.55 251.667 195.361C287.508 234.53 305.573 263.596 291.851 296.262C284.119 314.657 263.603 327.016 240.796 327.016Z" fill="#100F0D"/>
<path d="M295.292 297.727C287.407 316.301 266.426 328.779 243.071 328.777H243.064C223.032 328.776 205.851 319.837 195.93 304.251C195.559 303.672 194.911 303.318 194.215 303.318C193.519 303.318 192.869 303.672 192.501 304.251C182.579 319.839 165.397 328.777 145.366 328.777C122.009 328.777 101.021 316.3 93.1378 297.727C79.0402 264.524 97.8173 234.735 135.014 194.5C171.532 155.007 188.68 129.951 194.215 121.268C199.749 129.951 216.898 155.007 253.414 194.5C290.61 234.735 309.389 264.524 295.292 297.727ZM210.274 386.292C215.026 394.573 220.621 401.295 220.512 411.264C220.43 418.636 216.738 424.662 210.318 427.992C198.58 434.078 187.253 413.847 200.385 408.577C201.189 408.254 202.112 408.317 203.022 408.639C204.929 408.707 206.816 409.644 208.8 409.607C211.547 409.561 213.645 407.765 214.004 405.057C214.267 403.046 213.239 401.391 211.266 400.87C210.366 400.689 209.583 400.887 208.912 401.465C208.527 402.115 208.462 402.737 208.726 403.338C208.936 403.046 209.306 403.227 209.452 403.481L209.51 403.586C209.625 403.787 209.569 404.003 209.424 404.163C207.857 405.904 205.074 402.375 206.448 400.652C208.449 398.14 212.178 398.969 213.912 401.348C215.728 403.836 213.956 407.665 211.888 409.358C211.045 410.048 210.002 410.435 208.929 410.627C210.281 411.516 211.417 412.832 212.216 414.26C214.282 417.953 211.86 421.977 208.103 422.983C207.96 423.024 207.829 422.809 207.981 422.731C210.816 421.274 210.042 416.95 208.429 414.93C208.073 414.481 207.622 414.09 207.139 413.717C207.128 417.578 202.386 421.16 200.969 417.621C200.589 416.671 201.613 416.147 202.261 416.88C205.23 415.418 201.008 406.136 196.672 412.278C192.154 418.677 199.136 424.021 203.99 425.517C213.717 428.519 218.497 418.685 218.727 410.903C219.027 400.599 209.982 389.953 205.786 380.952C200.029 368.605 195.729 354.852 193.755 341.042C191.774 354.852 187.477 368.605 181.72 380.952C177.522 389.953 168.477 400.599 168.782 410.903C169.007 418.685 173.787 428.519 183.516 425.517C188.371 424.021 195.35 418.677 190.833 412.278C186.501 406.136 182.274 415.418 185.245 416.88C185.893 416.147 186.916 416.671 186.537 417.621C185.118 421.16 180.379 417.578 180.365 413.717C179.884 414.09 179.432 414.481 179.077 414.93C177.462 416.95 176.687 421.274 179.527 422.731C179.675 422.809 179.547 423.024 179.403 422.983C175.646 421.977 173.224 417.953 175.29 414.26C176.091 412.832 177.225 411.516 178.577 410.627C177.502 410.435 176.461 410.048 175.62 409.358C173.552 407.665 171.779 403.836 173.595 401.348C175.327 398.969 179.058 398.14 181.057 400.652C182.432 402.375 179.647 405.904 178.082 404.163C177.938 404.003 177.881 403.787 177.997 403.586L178.056 403.481C178.2 403.227 178.569 403.046 178.783 403.338C179.044 402.737 178.979 402.115 178.593 401.465C177.924 400.887 177.139 400.689 176.238 400.87C174.266 401.391 173.239 403.046 173.504 405.057C173.86 407.765 175.958 409.561 178.705 409.607C180.688 409.644 182.578 408.707 184.483 408.639C185.392 408.317 186.315 408.254 187.123 408.577C200.253 413.847 188.928 434.078 177.191 427.992C170.765 424.662 167.079 418.636 166.994 411.264C166.884 401.295 172.48 394.573 177.231 386.292C185.53 371.831 190.442 355.59 193.171 339.104C193.236 338.862 193.305 338.624 193.375 338.384L193.37 338.378C193.485 337.965 193.597 337.555 193.718 337.148C193.986 338.322 194.275 339.484 194.589 340.619C197.368 356.586 202.231 372.272 210.274 386.292ZM203.325 384.069C203.158 383.811 203.438 383.56 203.644 383.808C206.657 387.396 207.848 391.246 206.955 395.905C205.549 403.232 196.207 404.894 195.098 412.633L194.971 412.591C195.039 409.081 196.287 405.921 198.044 402.916C201.623 396.792 208.752 392.449 203.325 384.069ZM191.84 373.531C188.762 382.381 187.98 389.39 191.427 398.232C191.546 398.534 191.095 398.825 190.883 398.57C186.702 393.555 183.649 387.186 185.683 380.504C188.571 371.025 193.246 363.22 193.922 353.099L193.924 353.097V353.075L193.98 353.035L193.992 353.024L193.998 353.035L194.054 353.075L194.055 353.097L194.057 353.099C194.734 363.22 199.41 371.025 202.298 380.504C204.33 387.186 201.277 393.555 197.098 398.57C196.884 398.825 196.434 398.534 196.552 398.232C200.003 389.39 199.22 382.381 196.14 373.531C194.98 370.198 194.321 367.045 193.992 363.867C193.659 367.045 193 370.198 191.84 373.531ZM189.461 402.916C191.217 405.921 192.465 409.081 192.536 412.591L192.406 412.633C191.299 404.894 181.958 403.232 180.552 395.905C179.658 391.246 180.851 387.396 183.862 383.808C184.065 383.56 184.35 383.811 184.182 384.069C178.752 392.449 185.881 396.792 189.461 402.916ZM257.724 190.913C215.79 144.752 199.113 117.834 196.137 112.799L196.108 112.75C195.918 112.343 195.608 111.986 195.174 111.771C194.952 111.66 194.717 111.599 194.484 111.573L194.428 111.564L194.241 111.562L194.177 111.553L194.128 111.56C193.95 111.564 193.777 111.59 193.601 111.639L193.574 111.65L193.254 111.771L193.115 111.867L193.025 111.929C192.716 112.141 192.479 112.416 192.329 112.736L192.325 112.742L192.315 112.759C189.404 117.69 172.752 144.624 130.702 190.913C91.597 233.961 71.9391 266.034 87.1799 302.569C95.8651 323.393 118.83 337.382 144.328 337.382C160.219 337.382 174.46 332.098 185.262 322.56L185.497 322.699L185.562 322.717C176.491 390.154 146.251 436.265 146.251 436.265H242.202C242.202 436.265 211.919 390.086 202.876 322.567L203.065 322.473C213.875 332.067 228.158 337.382 244.1 337.382H244.108C269.598 337.382 292.561 323.393 301.249 302.569C316.487 266.034 296.83 233.961 257.724 190.913Z" fill="#100F0D"/>
</svg>
